<?xml version="1.0" encoding="UTF-8"?>
<!DOCTYPE svg PUBLIC "-//W3C//DTD SVG 1.1//EN" "http://www.w3.org/Graphics/SVG/1.1/DTD/svg11.dtd">
<!-- Creator: CorelDRAW -->
<svg xmlns="http://www.w3.org/2000/svg" xml:space="preserve" width="150mm" height="70mm" style="shape-rendering:geometricPrecision; text-rendering:geometricPrecision; image-rendering:optimizeQuality; fill-rule:evenodd; clip-rule:evenodd"
viewBox="0 0 150 70"
 xmlns:xlink="http://www.w3.org/1999/xlink">
 <defs>
  <style type="text/css">
   <![CDATA[
    .str0 {stroke:#999999;stroke-width:0.0762}
    .str1 {stroke:#4C4C4C;stroke-width:0.0762;stroke-dasharray:0.762000 0.381000}
    .fil1 {fill:none}
    .fil0 {fill:#D3D3FC}
    .fil2 {fill:black;fill-rule:nonzero}
   ]]>
  </style>
 </defs>
 <g id="Livello_x0020_1">
  <metadata id="CorelCorpID_0Corel-Layer"/>
  <path class="fil0 str0" d="M11.7005 8.9053l6 0c4,13.3333 4.0001,26.6666 0,40l-6 0c-4,-13.3334 -4,-26.6667 0,-40z"/>
  <path class="fil0 str0" d="M37.2005 8.9053l6 0 0 40 -6 0c-4,-13.3334 -4,-26.6667 0,-40z"/>
  <path class="fil0 str0" d="M61.2005 8.9053l6 0c-1.6001,13.3333 -1.6001,26.6666 0,40l-6 0c-4,-13.3334 -4,-26.6667 0,-40z"/>
  <path class="fil0 str0" d="M85.2005 8.9053l6 0c-4,13.3333 -4,26.6666 0,40l-6 0c-4,-13.3334 -4,-26.6667 0,-40z"/>
  <path class="fil0 str0" d="M113.701 8.9053c-4,13.3333 -4,26.6666 0,40l-6 0 0 -40 6 0z"/>
  <path class="fil0 str0" d="M130.201 8.9053l12 0c-4,13.3333 -4,26.6666 0,40l-12 0c4.0001,-13.3334 4,-26.6667 0,-40z"/>
  <line class="fil1 str1" x1="4.7005" y1="28.9053" x2="144.701" y2= "28.9053" />
  <path class="fil2" d="M4.1306 55.4217l1.5938 0c0.3126,0 0.5525,0.0691 0.7183,0.2067 0.1658,0.1376 0.249,0.3104 0.249,0.5186 0,0.1735 -0.0578,0.321 -0.1735,0.4423 -0.1158,0.1214 -0.29,0.2173 -0.5229,0.2872 0.2879,0.0607 0.5038,0.1566 0.6477,0.2864 0.144,0.1306 0.2159,0.295 0.2159,0.4932 0,0.1517 -0.0409,0.2858 -0.1227,0.4029 -0.0819,0.1171 -0.2187,0.2166 -0.4092,0.2977 -0.1913,0.0812 -0.4079,0.1221 -0.6499,0.1221l-1.5465 0 0 -0.1552 0.2526 0c0.0755,0 0.1312,-0.012 0.1658,-0.0367 0.0352,-0.0254 0.0529,-0.0536 0.0529,-0.0854l0 -2.4489c0,-0.0579 -0.0169,-0.1016 -0.0515,-0.1313 -0.0346,-0.0296 -0.0847,-0.0444 -0.151,-0.0444l-0.2688 0 0 -0.1552zm0.9137 1.4054l0.5785 0c0.1778,0 0.3196,-0.0522 0.4248,-0.1566 0.1058,-0.1052 0.1587,-0.2766 0.1587,-0.5151 0,-0.1474 -0.0254,-0.2624 -0.0755,-0.345 -0.0508,-0.0825 -0.1235,-0.1432 -0.2194,-0.1813 -0.096,-0.0374 -0.2611,-0.0565 -0.4967,-0.0565 -0.1672,0 -0.2702,0.012 -0.3105,0.036 -0.0402,0.024 -0.0599,0.0663 -0.0599,0.127l0 1.0915zm0 0.1531l0 1.1783c0,0.055 0.0162,0.0966 0.0486,0.1242 0.0325,0.0275 0.0904,0.0409 0.175,0.0409l0.3697 0c0.2456,0 0.4262,-0.0536 0.5433,-0.1623 0.1171,-0.1079 0.1757,-0.2766 0.1757,-0.5052 0,-0.2095 -0.06,-0.3746 -0.1813,-0.4953 -0.1214,-0.1206 -0.2893,-0.1806 -0.5024,-0.1806l-0.6286 0zm2.5794 -1.5938c0.0621,0 0.1164,0.0233 0.1637,0.0705 0.0466,0.0466 0.0698,0.1016 0.0698,0.1651 0,0.0621 -0.0225,0.1157 -0.0677,0.1616 -0.0459,0.0452 -0.1002,0.0677 -0.1637,0.0677 -0.0635,0 -0.1178,-0.0225 -0.1644,-0.0691 -0.0458,-0.0459 -0.0691,-0.1002 -0.0691,-0.1623 0,-0.0621 0.0233,-0.1164 0.0705,-0.163 0.0466,-0.0472 0.1002,-0.0705 0.1609,-0.0705zm-0.5348 1.1557l0.7683 -0.0226 0 1.6658c0,0.0451 0.0113,0.0776 0.0332,0.0974 0.0318,0.0275 0.072,0.0409 0.1199,0.0409l0.2195 0 0 0.1552 -1.1 0 0 -0.1552 0.2046 0c0.0607,0 0.1052,-0.0148 0.1334,-0.0445 0.0282,-0.0296 0.0423,-0.0726 0.0423,-0.1291l0 -1.2192c0,-0.0776 -0.0219,-0.1354 -0.0663,-0.175 -0.0438,-0.0395 -0.1094,-0.0585 -0.1962,-0.0585l-0.1587 0 0 -0.1552zm2.8504 1.3624l0.1341 0.0388c-0.1073,0.3958 -0.3443,0.5934 -0.7105,0.5934 -0.2688,0 -0.4889,-0.0889 -0.6597,-0.2667 -0.1707,-0.1778 -0.2561,-0.4142 -0.2561,-0.7091 0,-0.3415 0.0938,-0.6068 0.2808,-0.7945 0.1877,-0.1884 0.4078,-0.2822 0.6618,-0.2822 0.1898,0 0.3471,0.0522 0.4713,0.1566 0.1235,0.1052 0.1856,0.2216 0.1856,0.35 0,0.0769 -0.0226,0.1404 -0.0692,0.1912 -0.0458,0.0501 -0.1009,0.0755 -0.1644,0.0755 -0.0621,0 -0.1143,-0.0219 -0.1566,-0.0642 -0.043,-0.0431 -0.0642,-0.0946 -0.0642,-0.1552 0,-0.0607 0.0233,-0.1186 0.0699,-0.1736 0.0225,-0.0261 0.0331,-0.0466 0.0331,-0.0621 0,-0.0402 -0.0268,-0.079 -0.0804,-0.1171 -0.0536,-0.0374 -0.127,-0.0565 -0.2194,-0.0565 -0.168,0 -0.2957,0.0614 -0.3825,0.1842 -0.1234,0.1778 -0.1855,0.412 -0.1855,0.7027 0,0.2766 0.055,0.4869 0.1651,0.6294 0.11,0.1425 0.2512,0.2138 0.4219,0.2138 0.2357,0 0.4106,-0.1517 0.5249,-0.4544zm1.3124 -1.4203c0.2603,0 0.479,0.0938 0.6561,0.2822 0.1771,0.1877 0.266,0.4354 0.266,0.743 0,0.2123 -0.0395,0.393 -0.1192,0.5425 -0.079,0.1496 -0.1919,0.2674 -0.3387,0.3542 -0.1467,0.0875 -0.3048,0.1306 -0.4741,0.1306 -0.2512,0 -0.4635,-0.0953 -0.6378,-0.2851 -0.1743,-0.1905 -0.2618,-0.4367 -0.2618,-0.7401 0,-0.3048 0.0875,-0.5517 0.2625,-0.7422 0.175,-0.1898 0.3909,-0.2851 0.647,-0.2851zm0 0.1468c-0.1545,0 -0.2808,0.0698 -0.3803,0.2095 -0.0988,0.1397 -0.1489,0.3605 -0.1489,0.6625 0,0.3076 0.0494,0.532 0.1482,0.6738 0.098,0.1418 0.2258,0.2131 0.381,0.2131 0.1615,0 0.2921,-0.0713 0.3916,-0.2131 0.1001,-0.1418 0.1502,-0.3739 0.1502,-0.6964 0,-0.2991 -0.0494,-0.5157 -0.1481,-0.6491 -0.0981,-0.1333 -0.2293,-0.2003 -0.3937,-0.2003zm1.203 -0.0889l0.6427 -0.0395c0.0269,0.1213 0.0459,0.2631 0.0579,0.4261 0.0875,-0.1404 0.1898,-0.2462 0.3076,-0.3168 0.1178,-0.0698 0.2505,-0.1051 0.3994,-0.1051 0.1284,0 0.2356,0.0254 0.3224,0.0755 0.0868,0.0501 0.1566,0.1298 0.2088,0.2385 0.053,0.1093 0.0791,0.2314 0.0791,0.3661l0 0.9427c0,0.0698 0.0155,0.1199 0.0472,0.1495 0.0318,0.0297 0.0847,0.0445 0.1595,0.0445l0.1362 0 0 0.1552 -1.021 0 0 -0.1552 0.0967 0c0.091,0 0.1545,-0.0141 0.1905,-0.0431 0.036,-0.0289 0.0536,-0.0726 0.0536,-0.1305l0 -0.829c0,-0.1799 -0.0275,-0.314 -0.0825,-0.4008 -0.0769,-0.1241 -0.1941,-0.1862 -0.3514,-0.1862 -0.1559,0 -0.2858,0.0628 -0.3895,0.1884 -0.1044,0.1255 -0.1566,0.2885 -0.1566,0.4896l0 0.7176c0,0.0698 0.0162,0.1199 0.0487,0.1495 0.0324,0.0297 0.0861,0.0445 0.1601,0.0445l0.1348 0 0 0.1552 -1.0252 0 0 -0.1552 0.1341 0c0.0677,0 0.1192,-0.0134 0.1538,-0.0409 0.0353,-0.0276 0.0529,-0.0621 0.0529,-0.1038l0 -1.2502c0,-0.0825 -0.0226,-0.1453 -0.067,-0.1884 -0.0452,-0.0423 -0.1094,-0.0642 -0.1933,-0.0642l-0.0995 0 0 -0.134zm2.5011 0l0.9532 0 0 0.1404c-0.127,0.0028 -0.2081,0.0141 -0.2427,0.0338 -0.0353,0.0205 -0.0529,0.0487 -0.0529,0.0861 0,0.0304 0.007,0.0607 0.0205,0.091l0.5129 1.143 0.4692 -1.1077c0.0063,-0.0197 0.0099,-0.0388 0.0099,-0.0578 0,-0.1009 -0.0988,-0.1637 -0.2978,-0.1884l0 -0.1404 0.8022 0 0 0.1404c-0.0811,0.0084 -0.146,0.0303 -0.194,0.0663 -0.0487,0.036 -0.0854,0.084 -0.1115,0.1446l-0.7112 1.6433 -0.1114 0 -0.7613 -1.6891c-0.0276,-0.06 -0.0607,-0.103 -0.1002,-0.127 -0.0388,-0.024 -0.1009,-0.0367 -0.1849,-0.0381l0 -0.1404zm4.1755 0.9814l-1.3864 0c0.0063,0.2949 0.0621,0.503 0.1651,0.6244 0.1185,0.1369 0.2695,0.2046 0.4529,0.2046 0.2696,0 0.4869,-0.1531 0.6513,-0.4607l0.134 0.0578c-0.2011,0.3916 -0.4918,0.5871 -0.872,0.5871 -0.2597,0 -0.4777,-0.0939 -0.6548,-0.2809 -0.1771,-0.1876 -0.2653,-0.4275 -0.2653,-0.7196 0,-0.314 0.0868,-0.568 0.2611,-0.762 0.1749,-0.1933 0.3894,-0.29 0.6441,-0.29 0.1877,0 0.3493,0.048 0.4862,0.1446 0.1361,0.0967 0.2384,0.235 0.3076,0.4156 0.048,0.1263 0.0741,0.2865 0.0762,0.4791zm-1.3864 -0.1468l0.8389 0c0.0494,0 0.0882,-0.0162 0.1157,-0.0501 0.0275,-0.0338 0.0416,-0.0917 0.0416,-0.1728 0,-0.1517 -0.0473,-0.2801 -0.1418,-0.3867 -0.0945,-0.1058 -0.2053,-0.1587 -0.3337,-0.1587 -0.1433,0 -0.2653,0.0635 -0.3648,0.1919 -0.1002,0.1284 -0.1517,0.3203 -0.1559,0.5764zm1.9177 0.3726c0.0861,0.2384 0.1842,0.4035 0.2949,0.4946 0.1108,0.0917 0.2477,0.1375 0.41,0.1375 0.1502,0 0.2659,-0.0324 0.3464,-0.098 0.0804,-0.0657 0.1213,-0.1482 0.1213,-0.2491 0,-0.0579 -0.0148,-0.1087 -0.0444,-0.1517 -0.0297,-0.0437 -0.0713,-0.0762 -0.1235,-0.0974 -0.0522,-0.0211 -0.1877,-0.0529 -0.4071,-0.0938 -0.2095,-0.0416 -0.3556,-0.0847 -0.4381,-0.1305 -0.0826,-0.0452 -0.1468,-0.108 -0.1934,-0.1877 -0.0458,-0.0804 -0.0691,-0.1672 -0.0691,-0.2611 0,-0.1418 0.0473,-0.2702 0.1425,-0.3859 0.1228,-0.1474 0.2942,-0.2215 0.5151,-0.2215 0.1679,0 0.3238,0.0529 0.467,0.1594l0.1362 -0.1446 0.0847 0 0.0536 0.69 -0.1383 0c-0.0607,-0.1954 -0.1425,-0.3365 -0.2462,-0.4226 -0.103,-0.0861 -0.2307,-0.1291 -0.3824,-0.1291 -0.1306,0 -0.2336,0.0317 -0.3076,0.0959 -0.0748,0.0642 -0.1115,0.1426 -0.1115,0.235 0,0.0811 0.0345,0.1488 0.103,0.2025 0.0677,0.055 0.1997,0.098 0.3972,0.1298 0.2286,0.0388 0.3775,0.0713 0.4459,0.0974 0.1136,0.0416 0.2011,0.1051 0.2632,0.1912 0.0614,0.086 0.0924,0.1912 0.0924,0.3153 0,0.1708 -0.067,0.3154 -0.2011,0.434 -0.1347,0.1185 -0.3048,0.1778 -0.5115,0.1778 -0.1919,0 -0.3697,-0.0635 -0.5334,-0.1905l-0.151 0.1742 -0.1093 0 -0.0417 -0.7711 0.1362 0zm1.9593 0c0.0861,0.2384 0.1842,0.4035 0.2949,0.4946 0.1108,0.0917 0.2477,0.1375 0.41,0.1375 0.1502,0 0.2659,-0.0324 0.3464,-0.098 0.0804,-0.0657 0.1213,-0.1482 0.1213,-0.2491 0,-0.0579 -0.0148,-0.1087 -0.0444,-0.1517 -0.0297,-0.0437 -0.0713,-0.0762 -0.1235,-0.0974 -0.0522,-0.0211 -0.1877,-0.0529 -0.4071,-0.0938 -0.2095,-0.0416 -0.3556,-0.0847 -0.4381,-0.1305 -0.0826,-0.0452 -0.1468,-0.108 -0.1934,-0.1877 -0.0458,-0.0804 -0.0691,-0.1672 -0.0691,-0.2611 0,-0.1418 0.0473,-0.2702 0.1425,-0.3859 0.1228,-0.1474 0.2942,-0.2215 0.5151,-0.2215 0.1679,0 0.3238,0.0529 0.467,0.1594l0.1362 -0.1446 0.0847 0 0.0536 0.69 -0.1383 0c-0.0607,-0.1954 -0.1425,-0.3365 -0.2462,-0.4226 -0.103,-0.0861 -0.2307,-0.1291 -0.3824,-0.1291 -0.1306,0 -0.2336,0.0317 -0.3076,0.0959 -0.0748,0.0642 -0.1115,0.1426 -0.1115,0.235 0,0.0811 0.0345,0.1488 0.103,0.2025 0.0677,0.055 0.1997,0.098 0.3972,0.1298 0.2286,0.0388 0.3775,0.0713 0.4459,0.0974 0.1136,0.0416 0.2011,0.1051 0.2632,0.1912 0.0614,0.086 0.0924,0.1912 0.0924,0.3153 0,0.1708 -0.067,0.3154 -0.2011,0.434 -0.1347,0.1185 -0.3048,0.1778 -0.5115,0.1778 -0.1919,0 -0.3697,-0.0635 -0.5334,-0.1905l-0.151 0.1742 -0.1093 0 -0.0417 -0.7711 0.1362 0zm3.7747 0.5164l0.0741 0.1157c-0.1002,0.1037 -0.2124,0.1553 -0.3345,0.1553 -0.0938,0 -0.1728,-0.0254 -0.237,-0.0762 -0.0642,-0.0515 -0.12,-0.1412 -0.1687,-0.2689 -0.1305,0.1376 -0.2455,0.2293 -0.345,0.2759 -0.0994,0.0459 -0.2187,0.0692 -0.3577,0.0692 -0.1982,0 -0.3492,-0.0431 -0.4522,-0.1285 -0.1038,-0.0853 -0.1553,-0.1947 -0.1553,-0.328 0,-0.2018 0.1179,-0.3683 0.3542,-0.5017 0.2364,-0.1326 0.5511,-0.2215 0.9441,-0.2653l0 -0.2935c0,-0.1051 -0.0424,-0.1947 -0.1263,-0.2688 -0.084,-0.0748 -0.1905,-0.1115 -0.3204,-0.1115 -0.1199,0 -0.2229,0.0247 -0.3104,0.0741 -0.0614,0.0374 -0.0924,0.0741 -0.0924,0.1094 0,0.0211 0.0162,0.0536 0.0494,0.0973 0.0402,0.0551 0.0599,0.1038 0.0599,0.1468 0,0.0621 -0.0197,0.1129 -0.0599,0.1517 -0.0403,0.0395 -0.0925,0.0593 -0.1574,0.0593 -0.0684,0 -0.1263,-0.0233 -0.1721,-0.0706 -0.0466,-0.0466 -0.0692,-0.1065 -0.0692,-0.1799 0,-0.1362 0.0762,-0.2611 0.23,-0.374 0.1538,-0.1128 0.3556,-0.1693 0.6047,-0.1693 0.23,0 0.4057,0.0494 0.527,0.1489 0.1214,0.1002 0.1821,0.2222 0.1821,0.3655l0 1.0583c0,0.0938 0.0148,0.163 0.0451,0.2067 0.0304,0.0459 0.0699,0.0684 0.1179,0.0684 0.0543,0 0.1107,-0.0218 0.17,-0.0663zm-0.678 -0.8163c-0.35,0.048 -0.5984,0.127 -0.7444,0.2357 -0.1087,0.0825 -0.163,0.1996 -0.163,0.3513 0,0.1059 0.0282,0.1891 0.0847,0.2491 0.0564,0.06 0.1298,0.0903 0.2208,0.0903 0.163,0 0.3034,-0.0621 0.4226,-0.1856 0.1193,-0.1234 0.1793,-0.278 0.1793,-0.4635l0 -0.2773z"/>
  <path class="fil2" d="M32.6013 52.8782l1.5071 0c0.3407,0 0.6004,0.0769 0.7796,0.2314 0.1792,0.1545 0.2681,0.3563 0.2681,0.606 0,0.2491 -0.0826,0.4396 -0.2477,0.5701 -0.2271,0.1806 -0.5079,0.271 -0.841,0.271l-0.5461 0 0 1.0435c0,0.0606 0.0149,0.1044 0.0438,0.1305 0.0381,0.0332 0.0903,0.0494 0.1545,0.0494l0.3478 0 0 0.1552 -1.4661 0 0 -0.1552 0.3062 0c0.0607,0 0.1051,-0.012 0.1334,-0.036 0.0282,-0.024 0.0423,-0.0572 0.0423,-0.0981l0 -2.4369c0,-0.0621 -0.0176,-0.1073 -0.0536,-0.1348 -0.036,-0.0275 -0.1037,-0.0409 -0.2025,-0.0409l-0.2258 0 0 -0.1552zm0.92 1.5275l0.4156 0c0.2632,0 0.453,-0.0551 0.5694,-0.1644 0.1164,-0.1094 0.175,-0.2907 0.175,-0.5426 0,-0.1764 -0.0261,-0.3118 -0.0791,-0.4064 -0.0522,-0.0938 -0.1291,-0.1644 -0.23,-0.2095 -0.1016,-0.0452 -0.2681,-0.0685 -0.4995,-0.0685 -0.1531,0 -0.2498,0.0148 -0.29,0.0438 -0.0409,0.0289 -0.0614,0.079 -0.0614,0.151l0 1.1966zm2.3749 -1.5628c0.0621,0 0.1164,0.0233 0.1637,0.0705 0.0466,0.0466 0.0698,0.1016 0.0698,0.1651 0,0.0621 -0.0225,0.1157 -0.0677,0.1616 -0.0459,0.0452 -0.1002,0.0677 -0.1637,0.0677 -0.0635,0 -0.1178,-0.0225 -0.1644,-0.0691 -0.0458,-0.0459 -0.0691,-0.1002 -0.0691,-0.1623 0,-0.0621 0.0233,-0.1164 0.0705,-0.163 0.0466,-0.0472 0.1002,-0.0705 0.1609,-0.0705zm-0.5348 1.1557l0.7683 -0.0226 0 1.6658c0,0.0451 0.0113,0.0776 0.0332,0.0974 0.0318,0.0275 0.072,0.0409 0.1199,0.0409l0.2195 0 0 0.1552 -1.1 0 0 -0.1552 0.2046 0c0.0607,0 0.1052,-0.0148 0.1334,-0.0445 0.0282,-0.0296 0.0423,-0.0726 0.0423,-0.1291l0 -1.2192c0,-0.0776 -0.0219,-0.1354 -0.0663,-0.175 -0.0438,-0.0395 -0.1094,-0.0585 -0.1962,-0.0585l-0.1587 0 0 -0.1552zm3.417 1.7236l0.0741 0.1157c-0.1002,0.1037 -0.2124,0.1553 -0.3345,0.1553 -0.0938,0 -0.1728,-0.0254 -0.237,-0.0762 -0.0642,-0.0515 -0.12,-0.1412 -0.1687,-0.2689 -0.1305,0.1376 -0.2455,0.2293 -0.345,0.2759 -0.0994,0.0459 -0.2187,0.0692 -0.3577,0.0692 -0.1982,0 -0.3492,-0.0431 -0.4522,-0.1285 -0.1038,-0.0853 -0.1553,-0.1947 -0.1553,-0.328 0,-0.2018 0.1179,-0.3683 0.3542,-0.5017 0.2364,-0.1326 0.5511,-0.2215 0.9441,-0.2653l0 -0.2935c0,-0.1051 -0.0424,-0.1947 -0.1263,-0.2688 -0.084,-0.0748 -0.1905,-0.1115 -0.3204,-0.1115 -0.1199,0 -0.2229,0.0247 -0.3104,0.0741 -0.0614,0.0374 -0.0924,0.0741 -0.0924,0.1094 0,0.0211 0.0162,0.0536 0.0494,0.0973 0.0402,0.0551 0.0599,0.1038 0.0599,0.1468 0,0.0621 -0.0197,0.1129 -0.0599,0.1517 -0.0403,0.0395 -0.0925,0.0593 -0.1574,0.0593 -0.0684,0 -0.1263,-0.0233 -0.1721,-0.0706 -0.0466,-0.0466 -0.0692,-0.1065 -0.0692,-0.1799 0,-0.1362 0.0762,-0.2611 0.23,-0.374 0.1538,-0.1128 0.3556,-0.1693 0.6047,-0.1693 0.23,0 0.4057,0.0494 0.527,0.1489 0.1214,0.1002 0.1821,0.2222 0.1821,0.3655l0 1.0583c0,0.0938 0.0148,0.163 0.0451,0.2067 0.0304,0.0459 0.0699,0.0684 0.1179,0.0684 0.0543,0 0.1107,-0.0218 0.17,-0.0663zm-0.678 -0.8163c-0.35,0.048 -0.5984,0.127 -0.7444,0.2357 -0.1087,0.0825 -0.163,0.1996 -0.163,0.3513 0,0.1059 0.0282,0.1891 0.0847,0.2491 0.0564,0.06 0.1298,0.0903 0.2208,0.0903 0.163,0 0.3034,-0.0621 0.4226,-0.1856 0.1193,-0.1234 0.1793,-0.278 0.1793,-0.4635l0 -0.2773zm0.9856 -0.9073l0.6427 -0.0395c0.0269,0.1213 0.0459,0.2631 0.0579,0.4261 0.0875,-0.1404 0.1898,-0.2462 0.3076,-0.3168 0.1178,-0.0698 0.2505,-0.1051 0.3994,-0.1051 0.1284,0 0.2356,0.0254 0.3224,0.0755 0.0868,0.0501 0.1566,0.1298 0.2088,0.2385 0.053,0.1093 0.0791,0.2314 0.0791,0.3661l0 0.9427c0,0.0698 0.0155,0.1199 0.0472,0.1495 0.0318,0.0297 0.0847,0.0445 0.1595,0.0445l0.1362 0 0 0.1552 -1.021 0 0 -0.1552 0.0967 0c0.091,0 0.1545,-0.0141 0.1905,-0.0431 0.036,-0.0289 0.0536,-0.0726 0.0536,-0.1305l0 -0.829c0,-0.1799 -0.0275,-0.314 -0.0825,-0.4008 -0.0769,-0.1241 -0.1941,-0.1862 -0.3514,-0.1862 -0.1559,0 -0.2858,0.0628 -0.3895,0.1884 -0.1044,0.1255 -0.1566,0.2885 -0.1566,0.4896l0 0.7176c0,0.0698 0.0162,0.1199 0.0487,0.1495 0.0324,0.0297 0.0861,0.0445 0.1601,0.0445l0.1348 0 0 0.1552 -1.0252 0 0 -0.1552 0.1341 0c0.0677,0 0.1192,-0.0134 0.1538,-0.0409 0.0353,-0.0276 0.0529,-0.0621 0.0529,-0.1038l0 -1.2502c0,-0.0825 -0.0226,-0.1453 -0.067,-0.1884 -0.0452,-0.0423 -0.1094,-0.0642 -0.1933,-0.0642l-0.0995 0 0 -0.134zm3.4995 -0.0579c0.2603,0 0.479,0.0938 0.6561,0.2822 0.1771,0.1877 0.266,0.4354 0.266,0.743 0,0.2123 -0.0395,0.393 -0.1192,0.5425 -0.079,0.1496 -0.1919,0.2674 -0.3387,0.3542 -0.1467,0.0875 -0.3048,0.1306 -0.4741,0.1306 -0.2512,0 -0.4635,-0.0953 -0.6378,-0.2851 -0.1743,-0.1905 -0.2618,-0.4367 -0.2618,-0.7401 0,-0.3048 0.0875,-0.5517 0.2625,-0.7422 0.175,-0.1898 0.3909,-0.2851 0.647,-0.2851zm0 0.1468c-0.1545,0 -0.2808,0.0698 -0.3803,0.2095 -0.0988,0.1397 -0.1489,0.3605 -0.1489,0.6625 0,0.3076 0.0494,0.532 0.1482,0.6738 0.098,0.1418 0.2258,0.2131 0.381,0.2131 0.1615,0 0.2921,-0.0713 0.3916,-0.2131 0.1001,-0.1418 0.1502,-0.3739 0.1502,-0.6964 0,-0.2991 -0.0494,-0.5157 -0.1481,-0.6491 -0.0981,-0.1333 -0.2293,-0.2003 -0.3937,-0.2003zm1.3476 0.7274l0.8375 0 0 0.314 -0.8375 0 0 -0.314zm-12.1891 5.6331l0.1341 0.0388c-0.1073,0.3958 -0.3443,0.5934 -0.7105,0.5934 -0.2688,0 -0.4889,-0.0889 -0.6597,-0.2667 -0.1707,-0.1778 -0.2561,-0.4142 -0.2561,-0.7091 0,-0.3415 0.0938,-0.6068 0.2808,-0.7945 0.1877,-0.1884 0.4078,-0.2822 0.6618,-0.2822 0.1898,0 0.3471,0.0522 0.4713,0.1566 0.1235,0.1052 0.1856,0.2216 0.1856,0.35 0,0.0769 -0.0226,0.1404 -0.0692,0.1912 -0.0458,0.0501 -0.1009,0.0755 -0.1644,0.0755 -0.0621,0 -0.1143,-0.0219 -0.1566,-0.0642 -0.043,-0.0431 -0.0642,-0.0946 -0.0642,-0.1552 0,-0.0607 0.0233,-0.1186 0.0699,-0.1736 0.0225,-0.0261 0.0331,-0.0466 0.0331,-0.0621 0,-0.0402 -0.0268,-0.079 -0.0804,-0.1171 -0.0536,-0.0374 -0.127,-0.0565 -0.2194,-0.0565 -0.168,0 -0.2957,0.0614 -0.3825,0.1842 -0.1234,0.1778 -0.1855,0.412 -0.1855,0.7027 0,0.2766 0.055,0.4869 0.1651,0.6294 0.11,0.1425 0.2512,0.2138 0.4219,0.2138 0.2357,0 0.4106,-0.1517 0.5249,-0.4544zm1.3124 -1.4203c0.2603,0 0.479,0.0938 0.6561,0.2822 0.1771,0.1877 0.266,0.4354 0.266,0.743 0,0.2123 -0.0395,0.393 -0.1192,0.5425 -0.079,0.1496 -0.1919,0.2674 -0.3387,0.3542 -0.1467,0.0875 -0.3048,0.1306 -0.4741,0.1306 -0.2512,0 -0.4635,-0.0953 -0.6378,-0.2851 -0.1743,-0.1905 -0.2618,-0.4367 -0.2618,-0.7401 0,-0.3048 0.0875,-0.5517 0.2625,-0.7422 0.175,-0.1898 0.3909,-0.2851 0.647,-0.2851zm0 0.1468c-0.1545,0 -0.2808,0.0698 -0.3803,0.2095 -0.0988,0.1397 -0.1489,0.3605 -0.1489,0.6625 0,0.3076 0.0494,0.532 0.1482,0.6738 0.098,0.1418 0.2258,0.2131 0.381,0.2131 0.1615,0 0.2921,-0.0713 0.3916,-0.2131 0.1001,-0.1418 0.1502,-0.3739 0.1502,-0.6964 0,-0.2991 -0.0494,-0.5157 -0.1481,-0.6491 -0.0981,-0.1333 -0.2293,-0.2003 -0.3937,-0.2003zm1.203 -0.0889l0.6427 -0.0395c0.0269,0.1213 0.0459,0.2631 0.0579,0.4261 0.0875,-0.1404 0.1898,-0.2462 0.3076,-0.3168 0.1178,-0.0698 0.2505,-0.1051 0.3994,-0.1051 0.1284,0 0.2356,0.0254 0.3224,0.0755 0.0868,0.0501 0.1566,0.1298 0.2088,0.2385 0.053,0.1093 0.0791,0.2314 0.0791,0.3661l0 0.9427c0,0.0698 0.0155,0.1199 0.0472,0.1495 0.0318,0.0297 0.0847,0.0445 0.1595,0.0445l0.1362 0 0 0.1552 -1.021 0 0 -0.1552 0.0967 0c0.091,0 0.1545,-0.0141 0.1905,-0.0431 0.036,-0.0289 0.0536,-0.0726 0.0536,-0.1305l0 -0.829c0,-0.1799 -0.0275,-0.314 -0.0825,-0.4008 -0.0769,-0.1241 -0.1941,-0.1862 -0.3514,-0.1862 -0.1559,0 -0.2858,0.0628 -0.3895,0.1884 -0.1044,0.1255 -0.1566,0.2885 -0.1566,0.4896l0 0.7176c0,0.0698 0.0162,0.1199 0.0487,0.1495 0.0324,0.0297 0.0861,0.0445 0.1601,0.0445l0.1348 0 0 0.1552 -1.0252 0 0 -0.1552 0.1341 0c0.0677,0 0.1192,-0.0134 0.1538,-0.0409 0.0353,-0.0276 0.0529,-0.0621 0.0529,-0.1038l0 -1.2502c0,-0.0825 -0.0226,-0.1453 -0.067,-0.1884 -0.0452,-0.0423 -0.1094,-0.0642 -0.1933,-0.0642l-0.0995 0 0 -0.134zm2.5011 0l0.9532 0 0 0.1404c-0.127,0.0028 -0.2081,0.0141 -0.2427,0.0338 -0.0353,0.0205 -0.0529,0.0487 -0.0529,0.0861 0,0.0304 0.007,0.0607 0.0205,0.091l0.5129 1.143 0.4692 -1.1077c0.0063,-0.0197 0.0099,-0.0388 0.0099,-0.0578 0,-0.1009 -0.0988,-0.1637 -0.2978,-0.1884l0 -0.1404 0.8022 0 0 0.1404c-0.0811,0.0084 -0.146,0.0303 -0.194,0.0663 -0.0487,0.036 -0.0854,0.084 -0.1115,0.1446l-0.7112 1.6433 -0.1114 0 -0.7613 -1.6891c-0.0276,-0.06 -0.0607,-0.103 -0.1002,-0.127 -0.0388,-0.024 -0.1009,-0.0367 -0.1849,-0.0381l0 -0.1404zm4.1755 0.9814l-1.3864 0c0.0063,0.2949 0.0621,0.503 0.1651,0.6244 0.1185,0.1369 0.2695,0.2046 0.4529,0.2046 0.2696,0 0.4869,-0.1531 0.6513,-0.4607l0.134 0.0578c-0.2011,0.3916 -0.4918,0.5871 -0.872,0.5871 -0.2597,0 -0.4777,-0.0939 -0.6548,-0.2809 -0.1771,-0.1876 -0.2653,-0.4275 -0.2653,-0.7196 0,-0.314 0.0868,-0.568 0.2611,-0.762 0.1749,-0.1933 0.3894,-0.29 0.6441,-0.29 0.1877,0 0.3493,0.048 0.4862,0.1446 0.1361,0.0967 0.2384,0.235 0.3076,0.4156 0.048,0.1263 0.0741,0.2865 0.0762,0.4791zm-1.3864 -0.1468l0.8389 0c0.0494,0 0.0882,-0.0162 0.1157,-0.0501 0.0275,-0.0338 0.0416,-0.0917 0.0416,-0.1728 0,-0.1517 -0.0473,-0.2801 -0.1418,-0.3867 -0.0945,-0.1058 -0.2053,-0.1587 -0.3337,-0.1587 -0.1433,0 -0.2653,0.0635 -0.3648,0.1919 -0.1002,0.1284 -0.1517,0.3203 -0.1559,0.5764zm1.9177 0.3726c0.0861,0.2384 0.1842,0.4035 0.2949,0.4946 0.1108,0.0917 0.2477,0.1375 0.41,0.1375 0.1502,0 0.2659,-0.0324 0.3464,-0.098 0.0804,-0.0657 0.1213,-0.1482 0.1213,-0.2491 0,-0.0579 -0.0148,-0.1087 -0.0444,-0.1517 -0.0297,-0.0437 -0.0713,-0.0762 -0.1235,-0.0974 -0.0522,-0.0211 -0.1877,-0.0529 -0.4071,-0.0938 -0.2095,-0.0416 -0.3556,-0.0847 -0.4381,-0.1305 -0.0826,-0.0452 -0.1468,-0.108 -0.1934,-0.1877 -0.0458,-0.0804 -0.0691,-0.1672 -0.0691,-0.2611 0,-0.1418 0.0473,-0.2702 0.1425,-0.3859 0.1228,-0.1474 0.2942,-0.2215 0.5151,-0.2215 0.1679,0 0.3238,0.0529 0.467,0.1594l0.1362 -0.1446 0.0847 0 0.0536 0.69 -0.1383 0c-0.0607,-0.1954 -0.1425,-0.3365 -0.2462,-0.4226 -0.103,-0.0861 -0.2307,-0.1291 -0.3824,-0.1291 -0.1306,0 -0.2336,0.0317 -0.3076,0.0959 -0.0748,0.0642 -0.1115,0.1426 -0.1115,0.235 0,0.0811 0.0345,0.1488 0.103,0.2025 0.0677,0.055 0.1997,0.098 0.3972,0.1298 0.2286,0.0388 0.3775,0.0713 0.4459,0.0974 0.1136,0.0416 0.2011,0.1051 0.2632,0.1912 0.0614,0.086 0.0924,0.1912 0.0924,0.3153 0,0.1708 -0.067,0.3154 -0.2011,0.434 -0.1347,0.1185 -0.3048,0.1778 -0.5115,0.1778 -0.1919,0 -0.3697,-0.0635 -0.5334,-0.1905l-0.151 0.1742 -0.1093 0 -0.0417 -0.7711 0.1362 0zm1.9593 0c0.0861,0.2384 0.1842,0.4035 0.2949,0.4946 0.1108,0.0917 0.2477,0.1375 0.41,0.1375 0.1502,0 0.2659,-0.0324 0.3464,-0.098 0.0804,-0.0657 0.1213,-0.1482 0.1213,-0.2491 0,-0.0579 -0.0148,-0.1087 -0.0444,-0.1517 -0.0297,-0.0437 -0.0713,-0.0762 -0.1235,-0.0974 -0.0522,-0.0211 -0.1877,-0.0529 -0.4071,-0.0938 -0.2095,-0.0416 -0.3556,-0.0847 -0.4381,-0.1305 -0.0826,-0.0452 -0.1468,-0.108 -0.1934,-0.1877 -0.0458,-0.0804 -0.0691,-0.1672 -0.0691,-0.2611 0,-0.1418 0.0473,-0.2702 0.1425,-0.3859 0.1228,-0.1474 0.2942,-0.2215 0.5151,-0.2215 0.1679,0 0.3238,0.0529 0.467,0.1594l0.1362 -0.1446 0.0847 0 0.0536 0.69 -0.1383 0c-0.0607,-0.1954 -0.1425,-0.3365 -0.2462,-0.4226 -0.103,-0.0861 -0.2307,-0.1291 -0.3824,-0.1291 -0.1306,0 -0.2336,0.0317 -0.3076,0.0959 -0.0748,0.0642 -0.1115,0.1426 -0.1115,0.235 0,0.0811 0.0345,0.1488 0.103,0.2025 0.0677,0.055 0.1997,0.098 0.3972,0.1298 0.2286,0.0388 0.3775,0.0713 0.4459,0.0974 0.1136,0.0416 0.2011,0.1051 0.2632,0.1912 0.0614,0.086 0.0924,0.1912 0.0924,0.3153 0,0.1708 -0.067,0.3154 -0.2011,0.434 -0.1347,0.1185 -0.3048,0.1778 -0.5115,0.1778 -0.1919,0 -0.3697,-0.0635 -0.5334,-0.1905l-0.151 0.1742 -0.1093 0 -0.0417 -0.7711 0.1362 0zm3.7747 0.5164l0.0741 0.1157c-0.1002,0.1037 -0.2124,0.1553 -0.3345,0.1553 -0.0938,0 -0.1728,-0.0254 -0.237,-0.0762 -0.0642,-0.0515 -0.12,-0.1412 -0.1687,-0.2689 -0.1305,0.1376 -0.2455,0.2293 -0.345,0.2759 -0.0994,0.0459 -0.2187,0.0692 -0.3577,0.0692 -0.1982,0 -0.3492,-0.0431 -0.4522,-0.1285 -0.1038,-0.0853 -0.1553,-0.1947 -0.1553,-0.328 0,-0.2018 0.1179,-0.3683 0.3542,-0.5017 0.2364,-0.1326 0.5511,-0.2215 0.9441,-0.2653l0 -0.2935c0,-0.1051 -0.0424,-0.1947 -0.1263,-0.2688 -0.084,-0.0748 -0.1905,-0.1115 -0.3204,-0.1115 -0.1199,0 -0.2229,0.0247 -0.3104,0.0741 -0.0614,0.0374 -0.0924,0.0741 -0.0924,0.1094 0,0.0211 0.0162,0.0536 0.0494,0.0973 0.0402,0.0551 0.0599,0.1038 0.0599,0.1468 0,0.0621 -0.0197,0.1129 -0.0599,0.1517 -0.0403,0.0395 -0.0925,0.0593 -0.1574,0.0593 -0.0684,0 -0.1263,-0.0233 -0.1721,-0.0706 -0.0466,-0.0466 -0.0692,-0.1065 -0.0692,-0.1799 0,-0.1362 0.0762,-0.2611 0.23,-0.374 0.1538,-0.1128 0.3556,-0.1693 0.6047,-0.1693 0.23,0 0.4057,0.0494 0.527,0.1489 0.1214,0.1002 0.1821,0.2222 0.1821,0.3655l0 1.0583c0,0.0938 0.0148,0.163 0.0451,0.2067 0.0304,0.0459 0.0699,0.0684 0.1179,0.0684 0.0543,0 0.1107,-0.0218 0.17,-0.0663zm-0.678 -0.8163c-0.35,0.048 -0.5984,0.127 -0.7444,0.2357 -0.1087,0.0825 -0.163,0.1996 -0.163,0.3513 0,0.1059 0.0282,0.1891 0.0847,0.2491 0.0564,0.06 0.1298,0.0903 0.2208,0.0903 0.163,0 0.3034,-0.0621 0.4226,-0.1856 0.1193,-0.1234 0.1793,-0.278 0.1793,-0.4635l0 -0.2773z"/>
  <path class="fil2" d="M55.3784 53.1304l0.1425 -0.2956 0.1298 0 0.0543 1.2298 -0.139 0c-0.091,-0.3457 -0.2053,-0.6005 -0.3429,-0.7648 -0.1707,-0.2054 -0.3746,-0.3077 -0.6117,-0.3077 -0.2568,0 -0.4649,0.1143 -0.6265,0.3429 -0.1609,0.2286 -0.242,0.616 -0.242,1.1614 0,0.4593 0.0924,0.8092 0.2773,1.0505 0.1573,0.2039 0.3775,0.3055 0.6611,0.3055 0.2483,0 0.4565,-0.079 0.6244,-0.2384 0.1679,-0.1595 0.278,-0.3994 0.3288,-0.7204l0.1467 0c-0.043,0.3641 -0.1672,0.6435 -0.3739,0.8389 -0.2067,0.1961 -0.4671,0.2935 -0.7818,0.2935 -0.2547,0 -0.4889,-0.0635 -0.7013,-0.1919 -0.213,-0.1284 -0.3831,-0.3126 -0.5108,-0.5532 -0.1277,-0.2406 -0.1912,-0.5037 -0.1912,-0.7902 0,-0.3048 0.0656,-0.5905 0.1976,-0.8579 0.1312,-0.2674 0.2998,-0.4685 0.5051,-0.6026 0.2054,-0.1347 0.4269,-0.2018 0.664,-0.2018 0.1319,0 0.2603,0.0226 0.3838,0.0685 0.1242,0.0451 0.2596,0.1235 0.4057,0.2335zm1.6594 0.8248c0.2603,0 0.479,0.0938 0.6561,0.2822 0.1771,0.1877 0.266,0.4354 0.266,0.743 0,0.2123 -0.0395,0.393 -0.1192,0.5425 -0.079,0.1496 -0.1919,0.2674 -0.3387,0.3542 -0.1467,0.0875 -0.3048,0.1306 -0.4741,0.1306 -0.2512,0 -0.4635,-0.0953 -0.6378,-0.2851 -0.1743,-0.1905 -0.2618,-0.4367 -0.2618,-0.7401 0,-0.3048 0.0875,-0.5517 0.2625,-0.7422 0.175,-0.1898 0.3909,-0.2851 0.647,-0.2851zm0 0.1468c-0.1545,0 -0.2808,0.0698 -0.3803,0.2095 -0.0988,0.1397 -0.1489,0.3605 -0.1489,0.6625 0,0.3076 0.0494,0.532 0.1482,0.6738 0.098,0.1418 0.2258,0.2131 0.381,0.2131 0.1615,0 0.2921,-0.0713 0.3916,-0.2131 0.1001,-0.1418 0.1502,-0.3739 0.1502,-0.6964 0,-0.2991 -0.0494,-0.5157 -0.1481,-0.6491 -0.0981,-0.1333 -0.2293,-0.2003 -0.3937,-0.2003zm1.203 -0.0889l0.6427 -0.0395c0.0269,0.1213 0.0459,0.2631 0.0579,0.4261 0.0875,-0.1404 0.1898,-0.2462 0.3076,-0.3168 0.1178,-0.0698 0.2505,-0.1051 0.3994,-0.1051 0.1284,0 0.2356,0.0254 0.3224,0.0755 0.0868,0.0501 0.1566,0.1298 0.2088,0.2385 0.053,0.1093 0.0791,0.2314 0.0791,0.3661l0 0.9427c0,0.0698 0.0155,0.1199 0.0472,0.1495 0.0318,0.0297 0.0847,0.0445 0.1595,0.0445l0.1362 0 0 0.1552 -1.021 0 0 -0.1552 0.0967 0c0.091,0 0.1545,-0.0141 0.1905,-0.0431 0.036,-0.0289 0.0536,-0.0726 0.0536,-0.1305l0 -0.829c0,-0.1799 -0.0275,-0.314 -0.0825,-0.4008 -0.0769,-0.1241 -0.1941,-0.1862 -0.3514,-0.1862 -0.1559,0 -0.2858,0.0628 -0.3895,0.1884 -0.1044,0.1255 -0.1566,0.2885 -0.1566,0.4896l0 0.7176c0,0.0698 0.0162,0.1199 0.0487,0.1495 0.0324,0.0297 0.0861,0.0445 0.1601,0.0445l0.1348 0 0 0.1552 -1.0252 0 0 -0.1552 0.1341 0c0.0677,0 0.1192,-0.0134 0.1538,-0.0409 0.0353,-0.0276 0.0529,-0.0621 0.0529,-0.1038l0 -1.2502c0,-0.0825 -0.0226,-0.1453 -0.067,-0.1884 -0.0452,-0.0423 -0.1094,-0.0642 -0.1933,-0.0642l-0.0995 0 0 -0.134zm2.5011 0l0.9532 0 0 0.1404c-0.127,0.0028 -0.2081,0.0141 -0.2427,0.0338 -0.0353,0.0205 -0.0529,0.0487 -0.0529,0.0861 0,0.0304 0.007,0.0607 0.0205,0.091l0.5129 1.143 0.4692 -1.1077c0.0063,-0.0197 0.0099,-0.0388 0.0099,-0.0578 0,-0.1009 -0.0988,-0.1637 -0.2978,-0.1884l0 -0.1404 0.8022 0 0 0.1404c-0.0811,0.0084 -0.146,0.0303 -0.194,0.0663 -0.0487,0.036 -0.0854,0.084 -0.1115,0.1446l-0.7112 1.6433 -0.1114 0 -0.7613 -1.6891c-0.0276,-0.06 -0.0607,-0.103 -0.1002,-0.127 -0.0388,-0.024 -0.1009,-0.0367 -0.1849,-0.0381l0 -0.1404zm4.1755 0.9814l-1.3864 0c0.0063,0.2949 0.0621,0.503 0.1651,0.6244 0.1185,0.1369 0.2695,0.2046 0.4529,0.2046 0.2696,0 0.4869,-0.1531 0.6513,-0.4607l0.134 0.0578c-0.2011,0.3916 -0.4918,0.5871 -0.872,0.5871 -0.2597,0 -0.4777,-0.0939 -0.6548,-0.2809 -0.1771,-0.1876 -0.2653,-0.4275 -0.2653,-0.7196 0,-0.314 0.0868,-0.568 0.2611,-0.762 0.1749,-0.1933 0.3894,-0.29 0.6441,-0.29 0.1877,0 0.3493,0.048 0.4862,0.1446 0.1361,0.0967 0.2384,0.235 0.3076,0.4156 0.048,0.1263 0.0741,0.2865 0.0762,0.4791zm-1.3864 -0.1468l0.8389 0c0.0494,0 0.0882,-0.0162 0.1157,-0.0501 0.0275,-0.0338 0.0416,-0.0917 0.0416,-0.1728 0,-0.1517 -0.0473,-0.2801 -0.1418,-0.3867 -0.0945,-0.1058 -0.2053,-0.1587 -0.3337,-0.1587 -0.1433,0 -0.2653,0.0635 -0.3648,0.1919 -0.1002,0.1284 -0.1517,0.3203 -0.1559,0.5764zm1.9177 0.3726c0.0861,0.2384 0.1842,0.4035 0.2949,0.4946 0.1108,0.0917 0.2477,0.1375 0.41,0.1375 0.1502,0 0.2659,-0.0324 0.3464,-0.098 0.0804,-0.0657 0.1213,-0.1482 0.1213,-0.2491 0,-0.0579 -0.0148,-0.1087 -0.0444,-0.1517 -0.0297,-0.0437 -0.0713,-0.0762 -0.1235,-0.0974 -0.0522,-0.0211 -0.1877,-0.0529 -0.4071,-0.0938 -0.2095,-0.0416 -0.3556,-0.0847 -0.4381,-0.1305 -0.0826,-0.0452 -0.1468,-0.108 -0.1934,-0.1877 -0.0458,-0.0804 -0.0691,-0.1672 -0.0691,-0.2611 0,-0.1418 0.0473,-0.2702 0.1425,-0.3859 0.1228,-0.1474 0.2942,-0.2215 0.5151,-0.2215 0.1679,0 0.3238,0.0529 0.467,0.1594l0.1362 -0.1446 0.0847 0 0.0536 0.69 -0.1383 0c-0.0607,-0.1954 -0.1425,-0.3365 -0.2462,-0.4226 -0.103,-0.0861 -0.2307,-0.1291 -0.3824,-0.1291 -0.1306,0 -0.2336,0.0317 -0.3076,0.0959 -0.0748,0.0642 -0.1115,0.1426 -0.1115,0.235 0,0.0811 0.0345,0.1488 0.103,0.2025 0.0677,0.055 0.1997,0.098 0.3972,0.1298 0.2286,0.0388 0.3775,0.0713 0.4459,0.0974 0.1136,0.0416 0.2011,0.1051 0.2632,0.1912 0.0614,0.086 0.0924,0.1912 0.0924,0.3153 0,0.1708 -0.067,0.3154 -0.2011,0.434 -0.1347,0.1185 -0.3048,0.1778 -0.5115,0.1778 -0.1919,0 -0.3697,-0.0635 -0.5334,-0.1905l-0.151 0.1742 -0.1093 0 -0.0417 -0.7711 0.1362 0zm1.9593 0c0.0861,0.2384 0.1842,0.4035 0.2949,0.4946 0.1108,0.0917 0.2477,0.1375 0.41,0.1375 0.1502,0 0.2659,-0.0324 0.3464,-0.098 0.0804,-0.0657 0.1213,-0.1482 0.1213,-0.2491 0,-0.0579 -0.0148,-0.1087 -0.0444,-0.1517 -0.0297,-0.0437 -0.0713,-0.0762 -0.1235,-0.0974 -0.0522,-0.0211 -0.1877,-0.0529 -0.4071,-0.0938 -0.2095,-0.0416 -0.3556,-0.0847 -0.4381,-0.1305 -0.0826,-0.0452 -0.1468,-0.108 -0.1934,-0.1877 -0.0458,-0.0804 -0.0691,-0.1672 -0.0691,-0.2611 0,-0.1418 0.0473,-0.2702 0.1425,-0.3859 0.1228,-0.1474 0.2942,-0.2215 0.5151,-0.2215 0.1679,0 0.3238,0.0529 0.467,0.1594l0.1362 -0.1446 0.0847 0 0.0536 0.69 -0.1383 0c-0.0607,-0.1954 -0.1425,-0.3365 -0.2462,-0.4226 -0.103,-0.0861 -0.2307,-0.1291 -0.3824,-0.1291 -0.1306,0 -0.2336,0.0317 -0.3076,0.0959 -0.0748,0.0642 -0.1115,0.1426 -0.1115,0.235 0,0.0811 0.0345,0.1488 0.103,0.2025 0.0677,0.055 0.1997,0.098 0.3972,0.1298 0.2286,0.0388 0.3775,0.0713 0.4459,0.0974 0.1136,0.0416 0.2011,0.1051 0.2632,0.1912 0.0614,0.086 0.0924,0.1912 0.0924,0.3153 0,0.1708 -0.067,0.3154 -0.2011,0.434 -0.1347,0.1185 -0.3048,0.1778 -0.5115,0.1778 -0.1919,0 -0.3697,-0.0635 -0.5334,-0.1905l-0.151 0.1742 -0.1093 0 -0.0417 -0.7711 0.1362 0zm3.7747 0.5164l0.0741 0.1157c-0.1002,0.1037 -0.2124,0.1553 -0.3345,0.1553 -0.0938,0 -0.1728,-0.0254 -0.237,-0.0762 -0.0642,-0.0515 -0.12,-0.1412 -0.1687,-0.2689 -0.1305,0.1376 -0.2455,0.2293 -0.345,0.2759 -0.0994,0.0459 -0.2187,0.0692 -0.3577,0.0692 -0.1982,0 -0.3492,-0.0431 -0.4522,-0.1285 -0.1038,-0.0853 -0.1553,-0.1947 -0.1553,-0.328 0,-0.2018 0.1179,-0.3683 0.3542,-0.5017 0.2364,-0.1326 0.5511,-0.2215 0.9441,-0.2653l0 -0.2935c0,-0.1051 -0.0424,-0.1947 -0.1263,-0.2688 -0.084,-0.0748 -0.1905,-0.1115 -0.3204,-0.1115 -0.1199,0 -0.2229,0.0247 -0.3104,0.0741 -0.0614,0.0374 -0.0924,0.0741 -0.0924,0.1094 0,0.0211 0.0162,0.0536 0.0494,0.0973 0.0402,0.0551 0.0599,0.1038 0.0599,0.1468 0,0.0621 -0.0197,0.1129 -0.0599,0.1517 -0.0403,0.0395 -0.0925,0.0593 -0.1574,0.0593 -0.0684,0 -0.1263,-0.0233 -0.1721,-0.0706 -0.0466,-0.0466 -0.0692,-0.1065 -0.0692,-0.1799 0,-0.1362 0.0762,-0.2611 0.23,-0.374 0.1538,-0.1128 0.3556,-0.1693 0.6047,-0.1693 0.23,0 0.4057,0.0494 0.527,0.1489 0.1214,0.1002 0.1821,0.2222 0.1821,0.3655l0 1.0583c0,0.0938 0.0148,0.163 0.0451,0.2067 0.0304,0.0459 0.0699,0.0684 0.1179,0.0684 0.0543,0 0.1107,-0.0218 0.17,-0.0663zm-0.678 -0.8163c-0.35,0.048 -0.5984,0.127 -0.7444,0.2357 -0.1087,0.0825 -0.163,0.1996 -0.163,0.3513 0,0.1059 0.0282,0.1891 0.0847,0.2491 0.0564,0.06 0.1298,0.0903 0.2208,0.0903 0.163,0 0.3034,-0.0621 0.4226,-0.1856 0.1193,-0.1234 0.1793,-0.278 0.1793,-0.4635l0 -0.2773zm1.1302 -0.091l0.8375 0 0 0.314 -0.8375 0 0 -0.314zm-14.8928 5.6331l0.1341 0.0388c-0.1073,0.3958 -0.3443,0.5934 -0.7105,0.5934 -0.2688,0 -0.4889,-0.0889 -0.6597,-0.2667 -0.1707,-0.1778 -0.2561,-0.4142 -0.2561,-0.7091 0,-0.3415 0.0938,-0.6068 0.2808,-0.7945 0.1877,-0.1884 0.4078,-0.2822 0.6618,-0.2822 0.1898,0 0.3471,0.0522 0.4713,0.1566 0.1235,0.1052 0.1856,0.2216 0.1856,0.35 0,0.0769 -0.0226,0.1404 -0.0692,0.1912 -0.0458,0.0501 -0.1009,0.0755 -0.1644,0.0755 -0.0621,0 -0.1143,-0.0219 -0.1566,-0.0642 -0.043,-0.0431 -0.0642,-0.0946 -0.0642,-0.1552 0,-0.0607 0.0233,-0.1186 0.0699,-0.1736 0.0225,-0.0261 0.0331,-0.0466 0.0331,-0.0621 0,-0.0402 -0.0268,-0.079 -0.0804,-0.1171 -0.0536,-0.0374 -0.127,-0.0565 -0.2194,-0.0565 -0.168,0 -0.2957,0.0614 -0.3825,0.1842 -0.1234,0.1778 -0.1855,0.412 -0.1855,0.7027 0,0.2766 0.055,0.4869 0.1651,0.6294 0.11,0.1425 0.2512,0.2138 0.4219,0.2138 0.2357,0 0.4106,-0.1517 0.5249,-0.4544zm1.3124 -1.4203c0.2603,0 0.479,0.0938 0.6561,0.2822 0.1771,0.1877 0.266,0.4354 0.266,0.743 0,0.2123 -0.0395,0.393 -0.1192,0.5425 -0.079,0.1496 -0.1919,0.2674 -0.3387,0.3542 -0.1467,0.0875 -0.3048,0.1306 -0.4741,0.1306 -0.2512,0 -0.4635,-0.0953 -0.6378,-0.2851 -0.1743,-0.1905 -0.2618,-0.4367 -0.2618,-0.7401 0,-0.3048 0.0875,-0.5517 0.2625,-0.7422 0.175,-0.1898 0.3909,-0.2851 0.647,-0.2851zm0 0.1468c-0.1545,0 -0.2808,0.0698 -0.3803,0.2095 -0.0988,0.1397 -0.1489,0.3605 -0.1489,0.6625 0,0.3076 0.0494,0.532 0.1482,0.6738 0.098,0.1418 0.2258,0.2131 0.381,0.2131 0.1615,0 0.2921,-0.0713 0.3916,-0.2131 0.1001,-0.1418 0.1502,-0.3739 0.1502,-0.6964 0,-0.2991 -0.0494,-0.5157 -0.1481,-0.6491 -0.0981,-0.1333 -0.2293,-0.2003 -0.3937,-0.2003zm1.203 -0.0889l0.6427 -0.0395c0.0269,0.1213 0.0459,0.2631 0.0579,0.4261 0.0875,-0.1404 0.1898,-0.2462 0.3076,-0.3168 0.1178,-0.0698 0.2505,-0.1051 0.3994,-0.1051 0.1284,0 0.2356,0.0254 0.3224,0.0755 0.0868,0.0501 0.1566,0.1298 0.2088,0.2385 0.053,0.1093 0.0791,0.2314 0.0791,0.3661l0 0.9427c0,0.0698 0.0155,0.1199 0.0472,0.1495 0.0318,0.0297 0.0847,0.0445 0.1595,0.0445l0.1362 0 0 0.1552 -1.021 0 0 -0.1552 0.0967 0c0.091,0 0.1545,-0.0141 0.1905,-0.0431 0.036,-0.0289 0.0536,-0.0726 0.0536,-0.1305l0 -0.829c0,-0.1799 -0.0275,-0.314 -0.0825,-0.4008 -0.0769,-0.1241 -0.1941,-0.1862 -0.3514,-0.1862 -0.1559,0 -0.2858,0.0628 -0.3895,0.1884 -0.1044,0.1255 -0.1566,0.2885 -0.1566,0.4896l0 0.7176c0,0.0698 0.0162,0.1199 0.0487,0.1495 0.0324,0.0297 0.0861,0.0445 0.1601,0.0445l0.1348 0 0 0.1552 -1.0252 0 0 -0.1552 0.1341 0c0.0677,0 0.1192,-0.0134 0.1538,-0.0409 0.0353,-0.0276 0.0529,-0.0621 0.0529,-0.1038l0 -1.2502c0,-0.0825 -0.0226,-0.1453 -0.067,-0.1884 -0.0452,-0.0423 -0.1094,-0.0642 -0.1933,-0.0642l-0.0995 0 0 -0.134zm4.066 1.3624l0.1341 0.0388c-0.1073,0.3958 -0.3443,0.5934 -0.7105,0.5934 -0.2688,0 -0.4889,-0.0889 -0.6597,-0.2667 -0.1707,-0.1778 -0.2561,-0.4142 -0.2561,-0.7091 0,-0.3415 0.0938,-0.6068 0.2808,-0.7945 0.1877,-0.1884 0.4078,-0.2822 0.6618,-0.2822 0.1898,0 0.3471,0.0522 0.4713,0.1566 0.1235,0.1052 0.1856,0.2216 0.1856,0.35 0,0.0769 -0.0226,0.1404 -0.0692,0.1912 -0.0458,0.0501 -0.1009,0.0755 -0.1644,0.0755 -0.0621,0 -0.1143,-0.0219 -0.1566,-0.0642 -0.043,-0.0431 -0.0642,-0.0946 -0.0642,-0.1552 0,-0.0607 0.0233,-0.1186 0.0699,-0.1736 0.0225,-0.0261 0.0331,-0.0466 0.0331,-0.0621 0,-0.0402 -0.0268,-0.079 -0.0804,-0.1171 -0.0536,-0.0374 -0.127,-0.0565 -0.2194,-0.0565 -0.168,0 -0.2957,0.0614 -0.3825,0.1842 -0.1234,0.1778 -0.1855,0.412 -0.1855,0.7027 0,0.2766 0.055,0.4869 0.1651,0.6294 0.11,0.1425 0.2512,0.2138 0.4219,0.2138 0.2357,0 0.4106,-0.1517 0.5249,-0.4544zm2.4455 0.3612l0.0741 0.1157c-0.1002,0.1037 -0.2124,0.1553 -0.3345,0.1553 -0.0938,0 -0.1728,-0.0254 -0.237,-0.0762 -0.0642,-0.0515 -0.12,-0.1412 -0.1687,-0.2689 -0.1305,0.1376 -0.2455,0.2293 -0.345,0.2759 -0.0994,0.0459 -0.2187,0.0692 -0.3577,0.0692 -0.1982,0 -0.3492,-0.0431 -0.4522,-0.1285 -0.1038,-0.0853 -0.1553,-0.1947 -0.1553,-0.328 0,-0.2018 0.1179,-0.3683 0.3542,-0.5017 0.2364,-0.1326 0.5511,-0.2215 0.9441,-0.2653l0 -0.2935c0,-0.1051 -0.0424,-0.1947 -0.1263,-0.2688 -0.084,-0.0748 -0.1905,-0.1115 -0.3204,-0.1115 -0.1199,0 -0.2229,0.0247 -0.3104,0.0741 -0.0614,0.0374 -0.0924,0.0741 -0.0924,0.1094 0,0.0211 0.0162,0.0536 0.0494,0.0973 0.0402,0.0551 0.0599,0.1038 0.0599,0.1468 0,0.0621 -0.0197,0.1129 -0.0599,0.1517 -0.0403,0.0395 -0.0925,0.0593 -0.1574,0.0593 -0.0684,0 -0.1263,-0.0233 -0.1721,-0.0706 -0.0466,-0.0466 -0.0692,-0.1065 -0.0692,-0.1799 0,-0.1362 0.0762,-0.2611 0.23,-0.374 0.1538,-0.1128 0.3556,-0.1693 0.6047,-0.1693 0.23,0 0.4057,0.0494 0.527,0.1489 0.1214,0.1002 0.1821,0.2222 0.1821,0.3655l0 1.0583c0,0.0938 0.0148,0.163 0.0451,0.2067 0.0304,0.0459 0.0699,0.0684 0.1179,0.0684 0.0543,0 0.1107,-0.0218 0.17,-0.0663zm-0.678 -0.8163c-0.35,0.048 -0.5984,0.127 -0.7444,0.2357 -0.1087,0.0825 -0.163,0.1996 -0.163,0.3513 0,0.1059 0.0282,0.1891 0.0847,0.2491 0.0564,0.06 0.1298,0.0903 0.2208,0.0903 0.163,0 0.3034,-0.0621 0.4226,-0.1856 0.1193,-0.1234 0.1793,-0.278 0.1793,-0.4635l0 -0.2773zm0.9009 -0.9073l0.9532 0 0 0.1404c-0.127,0.0028 -0.2081,0.0141 -0.2427,0.0338 -0.0353,0.0205 -0.0529,0.0487 -0.0529,0.0861 0,0.0304 0.007,0.0607 0.0205,0.091l0.5129 1.143 0.4692 -1.1077c0.0063,-0.0197 0.0099,-0.0388 0.0099,-0.0578 0,-0.1009 -0.0988,-0.1637 -0.2978,-0.1884l0 -0.1404 0.8022 0 0 0.1404c-0.0811,0.0084 -0.146,0.0303 -0.194,0.0663 -0.0487,0.036 -0.0854,0.084 -0.1115,0.1446l-0.7112 1.6433 -0.1114 0 -0.7613 -1.6891c-0.0276,-0.06 -0.0607,-0.103 -0.1002,-0.127 -0.0388,-0.024 -0.1009,-0.0367 -0.1849,-0.0381l0 -0.1404zm4.4055 1.7236l0.0741 0.1157c-0.1002,0.1037 -0.2124,0.1553 -0.3345,0.1553 -0.0938,0 -0.1728,-0.0254 -0.237,-0.0762 -0.0642,-0.0515 -0.12,-0.1412 -0.1687,-0.2689 -0.1305,0.1376 -0.2455,0.2293 -0.345,0.2759 -0.0994,0.0459 -0.2187,0.0692 -0.3577,0.0692 -0.1982,0 -0.3492,-0.0431 -0.4522,-0.1285 -0.1038,-0.0853 -0.1553,-0.1947 -0.1553,-0.328 0,-0.2018 0.1179,-0.3683 0.3542,-0.5017 0.2364,-0.1326 0.5511,-0.2215 0.9441,-0.2653l0 -0.2935c0,-0.1051 -0.0424,-0.1947 -0.1263,-0.2688 -0.084,-0.0748 -0.1905,-0.1115 -0.3204,-0.1115 -0.1199,0 -0.2229,0.0247 -0.3104,0.0741 -0.0614,0.0374 -0.0924,0.0741 -0.0924,0.1094 0,0.0211 0.0162,0.0536 0.0494,0.0973 0.0402,0.0551 0.0599,0.1038 0.0599,0.1468 0,0.0621 -0.0197,0.1129 -0.0599,0.1517 -0.0403,0.0395 -0.0925,0.0593 -0.1574,0.0593 -0.0684,0 -0.1263,-0.0233 -0.1721,-0.0706 -0.0466,-0.0466 -0.0692,-0.1065 -0.0692,-0.1799 0,-0.1362 0.0762,-0.2611 0.23,-0.374 0.1538,-0.1128 0.3556,-0.1693 0.6047,-0.1693 0.23,0 0.4057,0.0494 0.527,0.1489 0.1214,0.1002 0.1821,0.2222 0.1821,0.3655l0 1.0583c0,0.0938 0.0148,0.163 0.0451,0.2067 0.0304,0.0459 0.0699,0.0684 0.1179,0.0684 0.0543,0 0.1107,-0.0218 0.17,-0.0663zm-0.678 -0.8163c-0.35,0.048 -0.5984,0.127 -0.7444,0.2357 -0.1087,0.0825 -0.163,0.1996 -0.163,0.3513 0,0.1059 0.0282,0.1891 0.0847,0.2491 0.0564,0.06 0.1298,0.0903 0.2208,0.0903 0.163,0 0.3034,-0.0621 0.4226,-0.1856 0.1193,-0.1234 0.1793,-0.278 0.1793,-0.4635l0 -0.2773z"/>
  <path class="fil2" d="M78.8492 55.4217l1.0188 0 0.9115 2.4143 0.8411 -2.4143 1.0421 0 0 0.1552 -0.254 0c-0.0896,0 -0.1503,0.0127 -0.1814,0.0388 -0.031,0.0261 -0.0465,0.0719 -0.0465,0.1369l0 2.42c0,0.0487 0.019,0.0854 0.0557,0.1122 0.0374,0.0261 0.1016,0.0388 0.1926,0.0388l0.2336 0 0 0.1552 -1.3977 0 0 -0.1552 0.261 0c0.0741,0 0.1291,-0.0141 0.1651,-0.0424 0.036,-0.0282 0.0536,-0.0642 0.0536,-0.1086l0 -2.5957 -1.011 2.9019 -0.1404 0 -1.0873 -2.8899 0 2.2224c0,0.132 0.017,0.2308 0.0501,0.2964 0.0325,0.0656 0.0797,0.1157 0.1411,0.151 0.0614,0.0352 0.163,0.0571 0.3048,0.0649l0 0.1552 -1.1528 0 0 -0.1552c0.1883,-0.012 0.3167,-0.0529 0.3845,-0.1221 0.067,-0.0684 0.1009,-0.1905 0.1009,-0.3655l0 -2.1081c0,-0.053 -0.0155,-0.0911 -0.0473,-0.115 -0.0317,-0.024 -0.091,-0.036 -0.1778,-0.036l-0.2603 0 0 -0.1552zm5.88 2.1018l-1.3864 0c0.0063,0.2949 0.0621,0.503 0.1651,0.6244 0.1185,0.1369 0.2695,0.2046 0.4529,0.2046 0.2696,0 0.4869,-0.1531 0.6513,-0.4607l0.134 0.0578c-0.2011,0.3916 -0.4918,0.5871 -0.872,0.5871 -0.2597,0 -0.4777,-0.0939 -0.6548,-0.2809 -0.1771,-0.1876 -0.2653,-0.4275 -0.2653,-0.7196 0,-0.314 0.0868,-0.568 0.2611,-0.762 0.1749,-0.1933 0.3894,-0.29 0.6441,-0.29 0.1877,0 0.3493,0.048 0.4862,0.1446 0.1361,0.0967 0.2384,0.235 0.3076,0.4156 0.048,0.1263 0.0741,0.2865 0.0762,0.4791zm-1.3864 -0.1468l0.8389 0c0.0494,0 0.0882,-0.0162 0.1157,-0.0501 0.0275,-0.0338 0.0416,-0.0917 0.0416,-0.1728 0,-0.1517 -0.0473,-0.2801 -0.1418,-0.3867 -0.0945,-0.1058 -0.2053,-0.1587 -0.3337,-0.1587 -0.1433,0 -0.2653,0.0635 -0.3648,0.1919 -0.1002,0.1284 -0.1517,0.3203 -0.1559,0.5764zm1.6863 -0.8346l0.6427 -0.0395c0.0269,0.1213 0.0459,0.2631 0.0579,0.4261 0.0875,-0.1404 0.1898,-0.2462 0.3076,-0.3168 0.1178,-0.0698 0.2505,-0.1051 0.3994,-0.1051 0.1284,0 0.2356,0.0254 0.3224,0.0755 0.0868,0.0501 0.1566,0.1298 0.2088,0.2385 0.053,0.1093 0.0791,0.2314 0.0791,0.3661l0 0.9427c0,0.0698 0.0155,0.1199 0.0472,0.1495 0.0318,0.0297 0.0847,0.0445 0.1595,0.0445l0.1362 0 0 0.1552 -1.021 0 0 -0.1552 0.0967 0c0.091,0 0.1545,-0.0141 0.1905,-0.0431 0.036,-0.0289 0.0536,-0.0726 0.0536,-0.1305l0 -0.829c0,-0.1799 -0.0275,-0.314 -0.0825,-0.4008 -0.0769,-0.1241 -0.1941,-0.1862 -0.3514,-0.1862 -0.1559,0 -0.2858,0.0628 -0.3895,0.1884 -0.1044,0.1255 -0.1566,0.2885 -0.1566,0.4896l0 0.7176c0,0.0698 0.0162,0.1199 0.0487,0.1495 0.0324,0.0297 0.0861,0.0445 0.1601,0.0445l0.1348 0 0 0.1552 -1.0252 0 0 -0.1552 0.1341 0c0.0677,0 0.1192,-0.0134 0.1538,-0.0409 0.0353,-0.0276 0.0529,-0.0621 0.0529,-0.1038l0 -1.2502c0,-0.0825 -0.0226,-0.1453 -0.067,-0.1884 -0.0452,-0.0423 -0.1094,-0.0642 -0.1933,-0.0642l-0.0995 0 0 -0.134zm3.0839 -1.1557c0.0621,0 0.1164,0.0233 0.1637,0.0705 0.0466,0.0466 0.0698,0.1016 0.0698,0.1651 0,0.0621 -0.0225,0.1157 -0.0677,0.1616 -0.0459,0.0452 -0.1002,0.0677 -0.1637,0.0677 -0.0635,0 -0.1178,-0.0225 -0.1644,-0.0691 -0.0458,-0.0459 -0.0691,-0.1002 -0.0691,-0.1623 0,-0.0621 0.0233,-0.1164 0.0705,-0.163 0.0466,-0.0472 0.1002,-0.0705 0.1609,-0.0705zm-0.5348 1.1557l0.7683 -0.0226 0 1.6658c0,0.0451 0.0113,0.0776 0.0332,0.0974 0.0318,0.0275 0.072,0.0409 0.1199,0.0409l0.2195 0 0 0.1552 -1.1 0 0 -0.1552 0.2046 0c0.0607,0 0.1052,-0.0148 0.1334,-0.0445 0.0282,-0.0296 0.0423,-0.0726 0.0423,-0.1291l0 -1.2192c0,-0.0776 -0.0219,-0.1354 -0.0663,-0.175 -0.0438,-0.0395 -0.1094,-0.0585 -0.1962,-0.0585l-0.1587 0 0 -0.1552zm1.6016 1.2072c0.0861,0.2384 0.1842,0.4035 0.2949,0.4946 0.1108,0.0917 0.2477,0.1375 0.41,0.1375 0.1502,0 0.2659,-0.0324 0.3464,-0.098 0.0804,-0.0657 0.1213,-0.1482 0.1213,-0.2491 0,-0.0579 -0.0148,-0.1087 -0.0444,-0.1517 -0.0297,-0.0437 -0.0713,-0.0762 -0.1235,-0.0974 -0.0522,-0.0211 -0.1877,-0.0529 -0.4071,-0.0938 -0.2095,-0.0416 -0.3556,-0.0847 -0.4381,-0.1305 -0.0826,-0.0452 -0.1468,-0.108 -0.1934,-0.1877 -0.0458,-0.0804 -0.0691,-0.1672 -0.0691,-0.2611 0,-0.1418 0.0473,-0.2702 0.1425,-0.3859 0.1228,-0.1474 0.2942,-0.2215 0.5151,-0.2215 0.1679,0 0.3238,0.0529 0.467,0.1594l0.1362 -0.1446 0.0847 0 0.0536 0.69 -0.1383 0c-0.0607,-0.1954 -0.1425,-0.3365 -0.2462,-0.4226 -0.103,-0.0861 -0.2307,-0.1291 -0.3824,-0.1291 -0.1306,0 -0.2336,0.0317 -0.3076,0.0959 -0.0748,0.0642 -0.1115,0.1426 -0.1115,0.235 0,0.0811 0.0345,0.1488 0.103,0.2025 0.0677,0.055 0.1997,0.098 0.3972,0.1298 0.2286,0.0388 0.3775,0.0713 0.4459,0.0974 0.1136,0.0416 0.2011,0.1051 0.2632,0.1912 0.0614,0.086 0.0924,0.1912 0.0924,0.3153 0,0.1708 -0.067,0.3154 -0.2011,0.434 -0.1347,0.1185 -0.3048,0.1778 -0.5115,0.1778 -0.1919,0 -0.3697,-0.0635 -0.5334,-0.1905l-0.151 0.1742 -0.1093 0 -0.0417 -0.7711 0.1362 0zm3.2081 0.1552l0.1341 0.0388c-0.1073,0.3958 -0.3443,0.5934 -0.7105,0.5934 -0.2688,0 -0.4889,-0.0889 -0.6597,-0.2667 -0.1707,-0.1778 -0.2561,-0.4142 -0.2561,-0.7091 0,-0.3415 0.0938,-0.6068 0.2808,-0.7945 0.1877,-0.1884 0.4078,-0.2822 0.6618,-0.2822 0.1898,0 0.3471,0.0522 0.4713,0.1566 0.1235,0.1052 0.1856,0.2216 0.1856,0.35 0,0.0769 -0.0226,0.1404 -0.0692,0.1912 -0.0458,0.0501 -0.1009,0.0755 -0.1644,0.0755 -0.0621,0 -0.1143,-0.0219 -0.1566,-0.0642 -0.043,-0.0431 -0.0642,-0.0946 -0.0642,-0.1552 0,-0.0607 0.0233,-0.1186 0.0699,-0.1736 0.0225,-0.0261 0.0331,-0.0466 0.0331,-0.0621 0,-0.0402 -0.0268,-0.079 -0.0804,-0.1171 -0.0536,-0.0374 -0.127,-0.0565 -0.2194,-0.0565 -0.168,0 -0.2957,0.0614 -0.3825,0.1842 -0.1234,0.1778 -0.1855,0.412 -0.1855,0.7027 0,0.2766 0.055,0.4869 0.1651,0.6294 0.11,0.1425 0.2512,0.2138 0.4219,0.2138 0.2357,0 0.4106,-0.1517 0.5249,-0.4544zm1.3124 -1.4203c0.2603,0 0.479,0.0938 0.6561,0.2822 0.1771,0.1877 0.266,0.4354 0.266,0.743 0,0.2123 -0.0395,0.393 -0.1192,0.5425 -0.079,0.1496 -0.1919,0.2674 -0.3387,0.3542 -0.1467,0.0875 -0.3048,0.1306 -0.4741,0.1306 -0.2512,0 -0.4635,-0.0953 -0.6378,-0.2851 -0.1743,-0.1905 -0.2618,-0.4367 -0.2618,-0.7401 0,-0.3048 0.0875,-0.5517 0.2625,-0.7422 0.175,-0.1898 0.3909,-0.2851 0.647,-0.2851zm0 0.1468c-0.1545,0 -0.2808,0.0698 -0.3803,0.2095 -0.0988,0.1397 -0.1489,0.3605 -0.1489,0.6625 0,0.3076 0.0494,0.532 0.1482,0.6738 0.098,0.1418 0.2258,0.2131 0.381,0.2131 0.1615,0 0.2921,-0.0713 0.3916,-0.2131 0.1001,-0.1418 0.1502,-0.3739 0.1502,-0.6964 0,-0.2991 -0.0494,-0.5157 -0.1481,-0.6491 -0.0981,-0.1333 -0.2293,-0.2003 -0.3937,-0.2003z"/>
  <path class="fil2" d="M104.601 52.8782l1.5071 0c0.3407,0 0.6004,0.0769 0.7796,0.2314 0.1792,0.1545 0.2681,0.3563 0.2681,0.606 0,0.2491 -0.0826,0.4396 -0.2477,0.5701 -0.2271,0.1806 -0.5079,0.271 -0.841,0.271l-0.5461 0 0 1.0435c0,0.0606 0.0149,0.1044 0.0438,0.1305 0.0381,0.0332 0.0903,0.0494 0.1545,0.0494l0.3478 0 0 0.1552 -1.4661 0 0 -0.1552 0.3062 0c0.0607,0 0.1051,-0.012 0.1334,-0.036 0.0282,-0.024 0.0423,-0.0572 0.0423,-0.0981l0 -2.4369c0,-0.0621 -0.0176,-0.1073 -0.0536,-0.1348 -0.036,-0.0275 -0.1037,-0.0409 -0.2025,-0.0409l-0.2258 0 0 -0.1552zm0.92 1.5275l0.4156 0c0.2632,0 0.453,-0.0551 0.5694,-0.1644 0.1164,-0.1094 0.175,-0.2907 0.175,-0.5426 0,-0.1764 -0.0261,-0.3118 -0.0791,-0.4064 -0.0522,-0.0938 -0.1291,-0.1644 -0.23,-0.2095 -0.1016,-0.0452 -0.2681,-0.0685 -0.4995,-0.0685 -0.1531,0 -0.2498,0.0148 -0.29,0.0438 -0.0409,0.0289 -0.0614,0.079 -0.0614,0.151l0 1.1966zm2.3749 -1.5628c0.0621,0 0.1164,0.0233 0.1637,0.0705 0.0466,0.0466 0.0698,0.1016 0.0698,0.1651 0,0.0621 -0.0225,0.1157 -0.0677,0.1616 -0.0459,0.0452 -0.1002,0.0677 -0.1637,0.0677 -0.0635,0 -0.1178,-0.0225 -0.1644,-0.0691 -0.0458,-0.0459 -0.0691,-0.1002 -0.0691,-0.1623 0,-0.0621 0.0233,-0.1164 0.0705,-0.163 0.0466,-0.0472 0.1002,-0.0705 0.1609,-0.0705zm-0.5348 1.1557l0.7683 -0.0226 0 1.6658c0,0.0451 0.0113,0.0776 0.0332,0.0974 0.0318,0.0275 0.072,0.0409 0.1199,0.0409l0.2195 0 0 0.1552 -1.1 0 0 -0.1552 0.2046 0c0.0607,0 0.1052,-0.0148 0.1334,-0.0445 0.0282,-0.0296 0.0423,-0.0726 0.0423,-0.1291l0 -1.2192c0,-0.0776 -0.0219,-0.1354 -0.0663,-0.175 -0.0438,-0.0395 -0.1094,-0.0585 -0.1962,-0.0585l-0.1587 0 0 -0.1552zm3.417 1.7236l0.0741 0.1157c-0.1002,0.1037 -0.2124,0.1553 -0.3345,0.1553 -0.0938,0 -0.1728,-0.0254 -0.237,-0.0762 -0.0642,-0.0515 -0.12,-0.1412 -0.1687,-0.2689 -0.1305,0.1376 -0.2455,0.2293 -0.345,0.2759 -0.0994,0.0459 -0.2187,0.0692 -0.3577,0.0692 -0.1982,0 -0.3492,-0.0431 -0.4522,-0.1285 -0.1038,-0.0853 -0.1553,-0.1947 -0.1553,-0.328 0,-0.2018 0.1179,-0.3683 0.3542,-0.5017 0.2364,-0.1326 0.5511,-0.2215 0.9441,-0.2653l0 -0.2935c0,-0.1051 -0.0424,-0.1947 -0.1263,-0.2688 -0.084,-0.0748 -0.1905,-0.1115 -0.3204,-0.1115 -0.1199,0 -0.2229,0.0247 -0.3104,0.0741 -0.0614,0.0374 -0.0924,0.0741 -0.0924,0.1094 0,0.0211 0.0162,0.0536 0.0494,0.0973 0.0402,0.0551 0.0599,0.1038 0.0599,0.1468 0,0.0621 -0.0197,0.1129 -0.0599,0.1517 -0.0403,0.0395 -0.0925,0.0593 -0.1574,0.0593 -0.0684,0 -0.1263,-0.0233 -0.1721,-0.0706 -0.0466,-0.0466 -0.0692,-0.1065 -0.0692,-0.1799 0,-0.1362 0.0762,-0.2611 0.23,-0.374 0.1538,-0.1128 0.3556,-0.1693 0.6047,-0.1693 0.23,0 0.4057,0.0494 0.527,0.1489 0.1214,0.1002 0.1821,0.2222 0.1821,0.3655l0 1.0583c0,0.0938 0.0148,0.163 0.0451,0.2067 0.0304,0.0459 0.0699,0.0684 0.1179,0.0684 0.0543,0 0.1107,-0.0218 0.17,-0.0663zm-0.678 -0.8163c-0.35,0.048 -0.5984,0.127 -0.7444,0.2357 -0.1087,0.0825 -0.163,0.1996 -0.163,0.3513 0,0.1059 0.0282,0.1891 0.0847,0.2491 0.0564,0.06 0.1298,0.0903 0.2208,0.0903 0.163,0 0.3034,-0.0621 0.4226,-0.1856 0.1193,-0.1234 0.1793,-0.278 0.1793,-0.4635l0 -0.2773zm0.9856 -0.9073l0.6427 -0.0395c0.0269,0.1213 0.0459,0.2631 0.0579,0.4261 0.0875,-0.1404 0.1898,-0.2462 0.3076,-0.3168 0.1178,-0.0698 0.2505,-0.1051 0.3994,-0.1051 0.1284,0 0.2356,0.0254 0.3224,0.0755 0.0868,0.0501 0.1566,0.1298 0.2088,0.2385 0.053,0.1093 0.0791,0.2314 0.0791,0.3661l0 0.9427c0,0.0698 0.0155,0.1199 0.0472,0.1495 0.0318,0.0297 0.0847,0.0445 0.1595,0.0445l0.1362 0 0 0.1552 -1.021 0 0 -0.1552 0.0967 0c0.091,0 0.1545,-0.0141 0.1905,-0.0431 0.036,-0.0289 0.0536,-0.0726 0.0536,-0.1305l0 -0.829c0,-0.1799 -0.0275,-0.314 -0.0825,-0.4008 -0.0769,-0.1241 -0.1941,-0.1862 -0.3514,-0.1862 -0.1559,0 -0.2858,0.0628 -0.3895,0.1884 -0.1044,0.1255 -0.1566,0.2885 -0.1566,0.4896l0 0.7176c0,0.0698 0.0162,0.1199 0.0487,0.1495 0.0324,0.0297 0.0861,0.0445 0.1601,0.0445l0.1348 0 0 0.1552 -1.0252 0 0 -0.1552 0.1341 0c0.0677,0 0.1192,-0.0134 0.1538,-0.0409 0.0353,-0.0276 0.0529,-0.0621 0.0529,-0.1038l0 -1.2502c0,-0.0825 -0.0226,-0.1453 -0.067,-0.1884 -0.0452,-0.0423 -0.1094,-0.0642 -0.1933,-0.0642l-0.0995 0 0 -0.134zm3.4995 -0.0579c0.2603,0 0.479,0.0938 0.6561,0.2822 0.1771,0.1877 0.266,0.4354 0.266,0.743 0,0.2123 -0.0395,0.393 -0.1192,0.5425 -0.079,0.1496 -0.1919,0.2674 -0.3387,0.3542 -0.1467,0.0875 -0.3048,0.1306 -0.4741,0.1306 -0.2512,0 -0.4635,-0.0953 -0.6378,-0.2851 -0.1743,-0.1905 -0.2618,-0.4367 -0.2618,-0.7401 0,-0.3048 0.0875,-0.5517 0.2625,-0.7422 0.175,-0.1898 0.3909,-0.2851 0.647,-0.2851zm0 0.1468c-0.1545,0 -0.2808,0.0698 -0.3803,0.2095 -0.0988,0.1397 -0.1489,0.3605 -0.1489,0.6625 0,0.3076 0.0494,0.532 0.1482,0.6738 0.098,0.1418 0.2258,0.2131 0.381,0.2131 0.1615,0 0.2921,-0.0713 0.3916,-0.2131 0.1001,-0.1418 0.1502,-0.3739 0.1502,-0.6964 0,-0.2991 -0.0494,-0.5157 -0.1481,-0.6491 -0.0981,-0.1333 -0.2293,-0.2003 -0.3937,-0.2003zm1.3476 0.7274l0.8375 0 0 0.314 -0.8375 0 0 -0.314zm-11.2881 5.6331l0.1341 0.0388c-0.1073,0.3958 -0.3443,0.5934 -0.7105,0.5934 -0.2688,0 -0.4889,-0.0889 -0.6597,-0.2667 -0.1707,-0.1778 -0.2561,-0.4142 -0.2561,-0.7091 0,-0.3415 0.0938,-0.6068 0.2808,-0.7945 0.1877,-0.1884 0.4078,-0.2822 0.6618,-0.2822 0.1898,0 0.3471,0.0522 0.4713,0.1566 0.1235,0.1052 0.1856,0.2216 0.1856,0.35 0,0.0769 -0.0226,0.1404 -0.0692,0.1912 -0.0458,0.0501 -0.1009,0.0755 -0.1644,0.0755 -0.0621,0 -0.1143,-0.0219 -0.1566,-0.0642 -0.043,-0.0431 -0.0642,-0.0946 -0.0642,-0.1552 0,-0.0607 0.0233,-0.1186 0.0699,-0.1736 0.0225,-0.0261 0.0331,-0.0466 0.0331,-0.0621 0,-0.0402 -0.0268,-0.079 -0.0804,-0.1171 -0.0536,-0.0374 -0.127,-0.0565 -0.2194,-0.0565 -0.168,0 -0.2957,0.0614 -0.3825,0.1842 -0.1234,0.1778 -0.1855,0.412 -0.1855,0.7027 0,0.2766 0.055,0.4869 0.1651,0.6294 0.11,0.1425 0.2512,0.2138 0.4219,0.2138 0.2357,0 0.4106,-0.1517 0.5249,-0.4544zm1.3124 -1.4203c0.2603,0 0.479,0.0938 0.6561,0.2822 0.1771,0.1877 0.266,0.4354 0.266,0.743 0,0.2123 -0.0395,0.393 -0.1192,0.5425 -0.079,0.1496 -0.1919,0.2674 -0.3387,0.3542 -0.1467,0.0875 -0.3048,0.1306 -0.4741,0.1306 -0.2512,0 -0.4635,-0.0953 -0.6378,-0.2851 -0.1743,-0.1905 -0.2618,-0.4367 -0.2618,-0.7401 0,-0.3048 0.0875,-0.5517 0.2625,-0.7422 0.175,-0.1898 0.3909,-0.2851 0.647,-0.2851zm0 0.1468c-0.1545,0 -0.2808,0.0698 -0.3803,0.2095 -0.0988,0.1397 -0.1489,0.3605 -0.1489,0.6625 0,0.3076 0.0494,0.532 0.1482,0.6738 0.098,0.1418 0.2258,0.2131 0.381,0.2131 0.1615,0 0.2921,-0.0713 0.3916,-0.2131 0.1001,-0.1418 0.1502,-0.3739 0.1502,-0.6964 0,-0.2991 -0.0494,-0.5157 -0.1481,-0.6491 -0.0981,-0.1333 -0.2293,-0.2003 -0.3937,-0.2003zm1.203 -0.0889l0.6427 -0.0395c0.0269,0.1213 0.0459,0.2631 0.0579,0.4261 0.0875,-0.1404 0.1898,-0.2462 0.3076,-0.3168 0.1178,-0.0698 0.2505,-0.1051 0.3994,-0.1051 0.1284,0 0.2356,0.0254 0.3224,0.0755 0.0868,0.0501 0.1566,0.1298 0.2088,0.2385 0.053,0.1093 0.0791,0.2314 0.0791,0.3661l0 0.9427c0,0.0698 0.0155,0.1199 0.0472,0.1495 0.0318,0.0297 0.0847,0.0445 0.1595,0.0445l0.1362 0 0 0.1552 -1.021 0 0 -0.1552 0.0967 0c0.091,0 0.1545,-0.0141 0.1905,-0.0431 0.036,-0.0289 0.0536,-0.0726 0.0536,-0.1305l0 -0.829c0,-0.1799 -0.0275,-0.314 -0.0825,-0.4008 -0.0769,-0.1241 -0.1941,-0.1862 -0.3514,-0.1862 -0.1559,0 -0.2858,0.0628 -0.3895,0.1884 -0.1044,0.1255 -0.1566,0.2885 -0.1566,0.4896l0 0.7176c0,0.0698 0.0162,0.1199 0.0487,0.1495 0.0324,0.0297 0.0861,0.0445 0.1601,0.0445l0.1348 0 0 0.1552 -1.0252 0 0 -0.1552 0.1341 0c0.0677,0 0.1192,-0.0134 0.1538,-0.0409 0.0353,-0.0276 0.0529,-0.0621 0.0529,-0.1038l0 -1.2502c0,-0.0825 -0.0226,-0.1453 -0.067,-0.1884 -0.0452,-0.0423 -0.1094,-0.0642 -0.1933,-0.0642l-0.0995 0 0 -0.134zm4.066 1.3624l0.1341 0.0388c-0.1073,0.3958 -0.3443,0.5934 -0.7105,0.5934 -0.2688,0 -0.4889,-0.0889 -0.6597,-0.2667 -0.1707,-0.1778 -0.2561,-0.4142 -0.2561,-0.7091 0,-0.3415 0.0938,-0.6068 0.2808,-0.7945 0.1877,-0.1884 0.4078,-0.2822 0.6618,-0.2822 0.1898,0 0.3471,0.0522 0.4713,0.1566 0.1235,0.1052 0.1856,0.2216 0.1856,0.35 0,0.0769 -0.0226,0.1404 -0.0692,0.1912 -0.0458,0.0501 -0.1009,0.0755 -0.1644,0.0755 -0.0621,0 -0.1143,-0.0219 -0.1566,-0.0642 -0.043,-0.0431 -0.0642,-0.0946 -0.0642,-0.1552 0,-0.0607 0.0233,-0.1186 0.0699,-0.1736 0.0225,-0.0261 0.0331,-0.0466 0.0331,-0.0621 0,-0.0402 -0.0268,-0.079 -0.0804,-0.1171 -0.0536,-0.0374 -0.127,-0.0565 -0.2194,-0.0565 -0.168,0 -0.2957,0.0614 -0.3825,0.1842 -0.1234,0.1778 -0.1855,0.412 -0.1855,0.7027 0,0.2766 0.055,0.4869 0.1651,0.6294 0.11,0.1425 0.2512,0.2138 0.4219,0.2138 0.2357,0 0.4106,-0.1517 0.5249,-0.4544zm2.4455 0.3612l0.0741 0.1157c-0.1002,0.1037 -0.2124,0.1553 -0.3345,0.1553 -0.0938,0 -0.1728,-0.0254 -0.237,-0.0762 -0.0642,-0.0515 -0.12,-0.1412 -0.1687,-0.2689 -0.1305,0.1376 -0.2455,0.2293 -0.345,0.2759 -0.0994,0.0459 -0.2187,0.0692 -0.3577,0.0692 -0.1982,0 -0.3492,-0.0431 -0.4522,-0.1285 -0.1038,-0.0853 -0.1553,-0.1947 -0.1553,-0.328 0,-0.2018 0.1179,-0.3683 0.3542,-0.5017 0.2364,-0.1326 0.5511,-0.2215 0.9441,-0.2653l0 -0.2935c0,-0.1051 -0.0424,-0.1947 -0.1263,-0.2688 -0.084,-0.0748 -0.1905,-0.1115 -0.3204,-0.1115 -0.1199,0 -0.2229,0.0247 -0.3104,0.0741 -0.0614,0.0374 -0.0924,0.0741 -0.0924,0.1094 0,0.0211 0.0162,0.0536 0.0494,0.0973 0.0402,0.0551 0.0599,0.1038 0.0599,0.1468 0,0.0621 -0.0197,0.1129 -0.0599,0.1517 -0.0403,0.0395 -0.0925,0.0593 -0.1574,0.0593 -0.0684,0 -0.1263,-0.0233 -0.1721,-0.0706 -0.0466,-0.0466 -0.0692,-0.1065 -0.0692,-0.1799 0,-0.1362 0.0762,-0.2611 0.23,-0.374 0.1538,-0.1128 0.3556,-0.1693 0.6047,-0.1693 0.23,0 0.4057,0.0494 0.527,0.1489 0.1214,0.1002 0.1821,0.2222 0.1821,0.3655l0 1.0583c0,0.0938 0.0148,0.163 0.0451,0.2067 0.0304,0.0459 0.0699,0.0684 0.1179,0.0684 0.0543,0 0.1107,-0.0218 0.17,-0.0663zm-0.678 -0.8163c-0.35,0.048 -0.5984,0.127 -0.7444,0.2357 -0.1087,0.0825 -0.163,0.1996 -0.163,0.3513 0,0.1059 0.0282,0.1891 0.0847,0.2491 0.0564,0.06 0.1298,0.0903 0.2208,0.0903 0.163,0 0.3034,-0.0621 0.4226,-0.1856 0.1193,-0.1234 0.1793,-0.278 0.1793,-0.4635l0 -0.2773zm0.9009 -0.9073l0.9532 0 0 0.1404c-0.127,0.0028 -0.2081,0.0141 -0.2427,0.0338 -0.0353,0.0205 -0.0529,0.0487 -0.0529,0.0861 0,0.0304 0.007,0.0607 0.0205,0.091l0.5129 1.143 0.4692 -1.1077c0.0063,-0.0197 0.0099,-0.0388 0.0099,-0.0578 0,-0.1009 -0.0988,-0.1637 -0.2978,-0.1884l0 -0.1404 0.8022 0 0 0.1404c-0.0811,0.0084 -0.146,0.0303 -0.194,0.0663 -0.0487,0.036 -0.0854,0.084 -0.1115,0.1446l-0.7112 1.6433 -0.1114 0 -0.7613 -1.6891c-0.0276,-0.06 -0.0607,-0.103 -0.1002,-0.127 -0.0388,-0.024 -0.1009,-0.0367 -0.1849,-0.0381l0 -0.1404zm4.4055 1.7236l0.0741 0.1157c-0.1002,0.1037 -0.2124,0.1553 -0.3345,0.1553 -0.0938,0 -0.1728,-0.0254 -0.237,-0.0762 -0.0642,-0.0515 -0.12,-0.1412 -0.1687,-0.2689 -0.1305,0.1376 -0.2455,0.2293 -0.345,0.2759 -0.0994,0.0459 -0.2187,0.0692 -0.3577,0.0692 -0.1982,0 -0.3492,-0.0431 -0.4522,-0.1285 -0.1038,-0.0853 -0.1553,-0.1947 -0.1553,-0.328 0,-0.2018 0.1179,-0.3683 0.3542,-0.5017 0.2364,-0.1326 0.5511,-0.2215 0.9441,-0.2653l0 -0.2935c0,-0.1051 -0.0424,-0.1947 -0.1263,-0.2688 -0.084,-0.0748 -0.1905,-0.1115 -0.3204,-0.1115 -0.1199,0 -0.2229,0.0247 -0.3104,0.0741 -0.0614,0.0374 -0.0924,0.0741 -0.0924,0.1094 0,0.0211 0.0162,0.0536 0.0494,0.0973 0.0402,0.0551 0.0599,0.1038 0.0599,0.1468 0,0.0621 -0.0197,0.1129 -0.0599,0.1517 -0.0403,0.0395 -0.0925,0.0593 -0.1574,0.0593 -0.0684,0 -0.1263,-0.0233 -0.1721,-0.0706 -0.0466,-0.0466 -0.0692,-0.1065 -0.0692,-0.1799 0,-0.1362 0.0762,-0.2611 0.23,-0.374 0.1538,-0.1128 0.3556,-0.1693 0.6047,-0.1693 0.23,0 0.4057,0.0494 0.527,0.1489 0.1214,0.1002 0.1821,0.2222 0.1821,0.3655l0 1.0583c0,0.0938 0.0148,0.163 0.0451,0.2067 0.0304,0.0459 0.0699,0.0684 0.1179,0.0684 0.0543,0 0.1107,-0.0218 0.17,-0.0663zm-0.678 -0.8163c-0.35,0.048 -0.5984,0.127 -0.7444,0.2357 -0.1087,0.0825 -0.163,0.1996 -0.163,0.3513 0,0.1059 0.0282,0.1891 0.0847,0.2491 0.0564,0.06 0.1298,0.0903 0.2208,0.0903 0.163,0 0.3034,-0.0621 0.4226,-0.1856 0.1193,-0.1234 0.1793,-0.278 0.1793,-0.4635l0 -0.2773z"/>
  <path class="fil2" d="M126.532 55.4217l1.5938 0c0.3126,0 0.5525,0.0691 0.7183,0.2067 0.1658,0.1376 0.249,0.3104 0.249,0.5186 0,0.1735 -0.0578,0.321 -0.1735,0.4423 -0.1158,0.1214 -0.29,0.2173 -0.5229,0.2872 0.2879,0.0607 0.5038,0.1566 0.6477,0.2864 0.144,0.1306 0.2159,0.295 0.2159,0.4932 0,0.1517 -0.0409,0.2858 -0.1227,0.4029 -0.0819,0.1171 -0.2187,0.2166 -0.4092,0.2977 -0.1913,0.0812 -0.4079,0.1221 -0.6499,0.1221l-1.5465 0 0 -0.1552 0.2526 0c0.0755,0 0.1312,-0.012 0.1658,-0.0367 0.0352,-0.0254 0.0529,-0.0536 0.0529,-0.0854l0 -2.4489c0,-0.0579 -0.0169,-0.1016 -0.0515,-0.1313 -0.0346,-0.0296 -0.0847,-0.0444 -0.151,-0.0444l-0.2688 0 0 -0.1552zm0.9137 1.4054l0.5785 0c0.1778,0 0.3196,-0.0522 0.4248,-0.1566 0.1058,-0.1052 0.1587,-0.2766 0.1587,-0.5151 0,-0.1474 -0.0254,-0.2624 -0.0755,-0.345 -0.0508,-0.0825 -0.1235,-0.1432 -0.2194,-0.1813 -0.096,-0.0374 -0.2611,-0.0565 -0.4967,-0.0565 -0.1672,0 -0.2702,0.012 -0.3105,0.036 -0.0402,0.024 -0.0599,0.0663 -0.0599,0.127l0 1.0915zm0 0.1531l0 1.1783c0,0.055 0.0162,0.0966 0.0486,0.1242 0.0325,0.0275 0.0904,0.0409 0.175,0.0409l0.3697 0c0.2456,0 0.4262,-0.0536 0.5433,-0.1623 0.1171,-0.1079 0.1757,-0.2766 0.1757,-0.5052 0,-0.2095 -0.06,-0.3746 -0.1813,-0.4953 -0.1214,-0.1206 -0.2893,-0.1806 -0.5024,-0.1806l-0.6286 0zm2.5794 -1.5938c0.0621,0 0.1164,0.0233 0.1637,0.0705 0.0466,0.0466 0.0698,0.1016 0.0698,0.1651 0,0.0621 -0.0225,0.1157 -0.0677,0.1616 -0.0459,0.0452 -0.1002,0.0677 -0.1637,0.0677 -0.0635,0 -0.1178,-0.0225 -0.1644,-0.0691 -0.0458,-0.0459 -0.0691,-0.1002 -0.0691,-0.1623 0,-0.0621 0.0233,-0.1164 0.0705,-0.163 0.0466,-0.0472 0.1002,-0.0705 0.1609,-0.0705zm-0.5348 1.1557l0.7683 -0.0226 0 1.6658c0,0.0451 0.0113,0.0776 0.0332,0.0974 0.0318,0.0275 0.072,0.0409 0.1199,0.0409l0.2195 0 0 0.1552 -1.1 0 0 -0.1552 0.2046 0c0.0607,0 0.1052,-0.0148 0.1334,-0.0445 0.0282,-0.0296 0.0423,-0.0726 0.0423,-0.1291l0 -1.2192c0,-0.0776 -0.0219,-0.1354 -0.0663,-0.175 -0.0438,-0.0395 -0.1094,-0.0585 -0.1962,-0.0585l-0.1587 0 0 -0.1552zm2.8504 1.3624l0.1341 0.0388c-0.1073,0.3958 -0.3443,0.5934 -0.7105,0.5934 -0.2688,0 -0.4889,-0.0889 -0.6597,-0.2667 -0.1707,-0.1778 -0.2561,-0.4142 -0.2561,-0.7091 0,-0.3415 0.0938,-0.6068 0.2808,-0.7945 0.1877,-0.1884 0.4078,-0.2822 0.6618,-0.2822 0.1898,0 0.3471,0.0522 0.4713,0.1566 0.1235,0.1052 0.1856,0.2216 0.1856,0.35 0,0.0769 -0.0226,0.1404 -0.0692,0.1912 -0.0458,0.0501 -0.1009,0.0755 -0.1644,0.0755 -0.0621,0 -0.1143,-0.0219 -0.1566,-0.0642 -0.043,-0.0431 -0.0642,-0.0946 -0.0642,-0.1552 0,-0.0607 0.0233,-0.1186 0.0699,-0.1736 0.0225,-0.0261 0.0331,-0.0466 0.0331,-0.0621 0,-0.0402 -0.0268,-0.079 -0.0804,-0.1171 -0.0536,-0.0374 -0.127,-0.0565 -0.2194,-0.0565 -0.168,0 -0.2957,0.0614 -0.3825,0.1842 -0.1234,0.1778 -0.1855,0.412 -0.1855,0.7027 0,0.2766 0.055,0.4869 0.1651,0.6294 0.11,0.1425 0.2512,0.2138 0.4219,0.2138 0.2357,0 0.4106,-0.1517 0.5249,-0.4544zm1.3124 -1.4203c0.2603,0 0.479,0.0938 0.6561,0.2822 0.1771,0.1877 0.266,0.4354 0.266,0.743 0,0.2123 -0.0395,0.393 -0.1192,0.5425 -0.079,0.1496 -0.1919,0.2674 -0.3387,0.3542 -0.1467,0.0875 -0.3048,0.1306 -0.4741,0.1306 -0.2512,0 -0.4635,-0.0953 -0.6378,-0.2851 -0.1743,-0.1905 -0.2618,-0.4367 -0.2618,-0.7401 0,-0.3048 0.0875,-0.5517 0.2625,-0.7422 0.175,-0.1898 0.3909,-0.2851 0.647,-0.2851zm0 0.1468c-0.1545,0 -0.2808,0.0698 -0.3803,0.2095 -0.0988,0.1397 -0.1489,0.3605 -0.1489,0.6625 0,0.3076 0.0494,0.532 0.1482,0.6738 0.098,0.1418 0.2258,0.2131 0.381,0.2131 0.1615,0 0.2921,-0.0713 0.3916,-0.2131 0.1001,-0.1418 0.1502,-0.3739 0.1502,-0.6964 0,-0.2991 -0.0494,-0.5157 -0.1481,-0.6491 -0.0981,-0.1333 -0.2293,-0.2003 -0.3937,-0.2003zm1.203 -0.0889l0.6427 -0.0395c0.0269,0.1213 0.0459,0.2631 0.0579,0.4261 0.0875,-0.1404 0.1898,-0.2462 0.3076,-0.3168 0.1178,-0.0698 0.2505,-0.1051 0.3994,-0.1051 0.1284,0 0.2356,0.0254 0.3224,0.0755 0.0868,0.0501 0.1566,0.1298 0.2088,0.2385 0.053,0.1093 0.0791,0.2314 0.0791,0.3661l0 0.9427c0,0.0698 0.0155,0.1199 0.0472,0.1495 0.0318,0.0297 0.0847,0.0445 0.1595,0.0445l0.1362 0 0 0.1552 -1.021 0 0 -0.1552 0.0967 0c0.091,0 0.1545,-0.0141 0.1905,-0.0431 0.036,-0.0289 0.0536,-0.0726 0.0536,-0.1305l0 -0.829c0,-0.1799 -0.0275,-0.314 -0.0825,-0.4008 -0.0769,-0.1241 -0.1941,-0.1862 -0.3514,-0.1862 -0.1559,0 -0.2858,0.0628 -0.3895,0.1884 -0.1044,0.1255 -0.1566,0.2885 -0.1566,0.4896l0 0.7176c0,0.0698 0.0162,0.1199 0.0487,0.1495 0.0324,0.0297 0.0861,0.0445 0.1601,0.0445l0.1348 0 0 0.1552 -1.0252 0 0 -0.1552 0.1341 0c0.0677,0 0.1192,-0.0134 0.1538,-0.0409 0.0353,-0.0276 0.0529,-0.0621 0.0529,-0.1038l0 -1.2502c0,-0.0825 -0.0226,-0.1453 -0.067,-0.1884 -0.0452,-0.0423 -0.1094,-0.0642 -0.1933,-0.0642l-0.0995 0 0 -0.134zm4.066 1.3624l0.1341 0.0388c-0.1073,0.3958 -0.3443,0.5934 -0.7105,0.5934 -0.2688,0 -0.4889,-0.0889 -0.6597,-0.2667 -0.1707,-0.1778 -0.2561,-0.4142 -0.2561,-0.7091 0,-0.3415 0.0938,-0.6068 0.2808,-0.7945 0.1877,-0.1884 0.4078,-0.2822 0.6618,-0.2822 0.1898,0 0.3471,0.0522 0.4713,0.1566 0.1235,0.1052 0.1856,0.2216 0.1856,0.35 0,0.0769 -0.0226,0.1404 -0.0692,0.1912 -0.0458,0.0501 -0.1009,0.0755 -0.1644,0.0755 -0.0621,0 -0.1143,-0.0219 -0.1566,-0.0642 -0.043,-0.0431 -0.0642,-0.0946 -0.0642,-0.1552 0,-0.0607 0.0233,-0.1186 0.0699,-0.1736 0.0225,-0.0261 0.0331,-0.0466 0.0331,-0.0621 0,-0.0402 -0.0268,-0.079 -0.0804,-0.1171 -0.0536,-0.0374 -0.127,-0.0565 -0.2194,-0.0565 -0.168,0 -0.2957,0.0614 -0.3825,0.1842 -0.1234,0.1778 -0.1855,0.412 -0.1855,0.7027 0,0.2766 0.055,0.4869 0.1651,0.6294 0.11,0.1425 0.2512,0.2138 0.4219,0.2138 0.2357,0 0.4106,-0.1517 0.5249,-0.4544zm2.4455 0.3612l0.0741 0.1157c-0.1002,0.1037 -0.2124,0.1553 -0.3345,0.1553 -0.0938,0 -0.1728,-0.0254 -0.237,-0.0762 -0.0642,-0.0515 -0.12,-0.1412 -0.1687,-0.2689 -0.1305,0.1376 -0.2455,0.2293 -0.345,0.2759 -0.0994,0.0459 -0.2187,0.0692 -0.3577,0.0692 -0.1982,0 -0.3492,-0.0431 -0.4522,-0.1285 -0.1038,-0.0853 -0.1553,-0.1947 -0.1553,-0.328 0,-0.2018 0.1179,-0.3683 0.3542,-0.5017 0.2364,-0.1326 0.5511,-0.2215 0.9441,-0.2653l0 -0.2935c0,-0.1051 -0.0424,-0.1947 -0.1263,-0.2688 -0.084,-0.0748 -0.1905,-0.1115 -0.3204,-0.1115 -0.1199,0 -0.2229,0.0247 -0.3104,0.0741 -0.0614,0.0374 -0.0924,0.0741 -0.0924,0.1094 0,0.0211 0.0162,0.0536 0.0494,0.0973 0.0402,0.0551 0.0599,0.1038 0.0599,0.1468 0,0.0621 -0.0197,0.1129 -0.0599,0.1517 -0.0403,0.0395 -0.0925,0.0593 -0.1574,0.0593 -0.0684,0 -0.1263,-0.0233 -0.1721,-0.0706 -0.0466,-0.0466 -0.0692,-0.1065 -0.0692,-0.1799 0,-0.1362 0.0762,-0.2611 0.23,-0.374 0.1538,-0.1128 0.3556,-0.1693 0.6047,-0.1693 0.23,0 0.4057,0.0494 0.527,0.1489 0.1214,0.1002 0.1821,0.2222 0.1821,0.3655l0 1.0583c0,0.0938 0.0148,0.163 0.0451,0.2067 0.0304,0.0459 0.0699,0.0684 0.1179,0.0684 0.0543,0 0.1107,-0.0218 0.17,-0.0663zm-0.678 -0.8163c-0.35,0.048 -0.5984,0.127 -0.7444,0.2357 -0.1087,0.0825 -0.163,0.1996 -0.163,0.3513 0,0.1059 0.0282,0.1891 0.0847,0.2491 0.0564,0.06 0.1298,0.0903 0.2208,0.0903 0.163,0 0.3034,-0.0621 0.4226,-0.1856 0.1193,-0.1234 0.1793,-0.278 0.1793,-0.4635l0 -0.2773zm0.9009 -0.9073l0.9532 0 0 0.1404c-0.127,0.0028 -0.2081,0.0141 -0.2427,0.0338 -0.0353,0.0205 -0.0529,0.0487 -0.0529,0.0861 0,0.0304 0.007,0.0607 0.0205,0.091l0.5129 1.143 0.4692 -1.1077c0.0063,-0.0197 0.0099,-0.0388 0.0099,-0.0578 0,-0.1009 -0.0988,-0.1637 -0.2978,-0.1884l0 -0.1404 0.8022 0 0 0.1404c-0.0811,0.0084 -0.146,0.0303 -0.194,0.0663 -0.0487,0.036 -0.0854,0.084 -0.1115,0.1446l-0.7112 1.6433 -0.1114 0 -0.7613 -1.6891c-0.0276,-0.06 -0.0607,-0.103 -0.1002,-0.127 -0.0388,-0.024 -0.1009,-0.0367 -0.1849,-0.0381l0 -0.1404zm4.4055 1.7236l0.0741 0.1157c-0.1002,0.1037 -0.2124,0.1553 -0.3345,0.1553 -0.0938,0 -0.1728,-0.0254 -0.237,-0.0762 -0.0642,-0.0515 -0.12,-0.1412 -0.1687,-0.2689 -0.1305,0.1376 -0.2455,0.2293 -0.345,0.2759 -0.0994,0.0459 -0.2187,0.0692 -0.3577,0.0692 -0.1982,0 -0.3492,-0.0431 -0.4522,-0.1285 -0.1038,-0.0853 -0.1553,-0.1947 -0.1553,-0.328 0,-0.2018 0.1179,-0.3683 0.3542,-0.5017 0.2364,-0.1326 0.5511,-0.2215 0.9441,-0.2653l0 -0.2935c0,-0.1051 -0.0424,-0.1947 -0.1263,-0.2688 -0.084,-0.0748 -0.1905,-0.1115 -0.3204,-0.1115 -0.1199,0 -0.2229,0.0247 -0.3104,0.0741 -0.0614,0.0374 -0.0924,0.0741 -0.0924,0.1094 0,0.0211 0.0162,0.0536 0.0494,0.0973 0.0402,0.0551 0.0599,0.1038 0.0599,0.1468 0,0.0621 -0.0197,0.1129 -0.0599,0.1517 -0.0403,0.0395 -0.0925,0.0593 -0.1574,0.0593 -0.0684,0 -0.1263,-0.0233 -0.1721,-0.0706 -0.0466,-0.0466 -0.0692,-0.1065 -0.0692,-0.1799 0,-0.1362 0.0762,-0.2611 0.23,-0.374 0.1538,-0.1128 0.3556,-0.1693 0.6047,-0.1693 0.23,0 0.4057,0.0494 0.527,0.1489 0.1214,0.1002 0.1821,0.2222 0.1821,0.3655l0 1.0583c0,0.0938 0.0148,0.163 0.0451,0.2067 0.0304,0.0459 0.0699,0.0684 0.1179,0.0684 0.0543,0 0.1107,-0.0218 0.17,-0.0663zm-0.678 -0.8163c-0.35,0.048 -0.5984,0.127 -0.7444,0.2357 -0.1087,0.0825 -0.163,0.1996 -0.163,0.3513 0,0.1059 0.0282,0.1891 0.0847,0.2491 0.0564,0.06 0.1298,0.0903 0.2208,0.0903 0.163,0 0.3034,-0.0621 0.4226,-0.1856 0.1193,-0.1234 0.1793,-0.278 0.1793,-0.4635l0 -0.2773z"/>
 </g>
</svg>
