<?xml version="1.0" encoding="UTF-8" standalone="no"?>

<!-- Generator: Adobe Illustrator 13.0.2, SVG Export Plug-In . SVG Version: 6.00 Build 14948)  -->

<svg id="neu" xmlns:rdf="http://www.w3.org/1999/02/22-rdf-syntax-ns#" xmlns="http://www.w3.org/2000/svg" enable-background="new 807.667 827.185 595.277 396.85" xml:space="preserve" height="396.85px" viewBox="807.667 827.185 595.277 396.85" width="595.28px" version="1.1" y="0px" x="0px" xmlns:cc="http://creativecommons.org/ns#" xmlns:dc="http://purl.org/dc/elements/1.1/"><metadata id="metadata66"><rdf:RDF><cc:Work rdf:about=""><dc:format>image/svg+xml</dc:format><dc:type rdf:resource="http://purl.org/dc/dcmitype/StillImage"/><dc:title/></cc:Work></rdf:RDF></metadata>
<g id="g3" stroke="#000" stroke-width="1.5" fill="#CDE9F4">
	<path id="path5" d="M942.41,918.96h-28.906l0.146,113.39-0.146,113.38h28.906s14.1-53.934,14.1-113.38c0-59.5-14.1-113.44-14.1-113.44z"/>
	<path id="path7" d="M1292.8,1032.4c0-59.451,14.1-113.39,14.1-113.39h-42.287l-0.148,113.39v0.004l0.148,113.38h42.287s-14.1-53.935-14.1-113.38v-0.049z"/>
	<path id="path9" d="M877.86,1032.4c0-59.451-14.1-113.36-14.1-113.36h-11.629v-0.022h-14.541s-14.102,53.937-14.102,113.39c0,59.45,14.102,113.38,14.102,113.38h14.541v-0.023h11.629c0-0.1,14.1-54,14.1-113.4z"/>
	<path id="path11" d="M1048.3,1032.4v-0.003c-0.002-59.53-25.436-113.38-25.436-113.38h-25.809s14.102,53.937,14.102,113.39c0,59.45-14.102,113.38-14.102,113.38h25.809s25.434-53.852,25.436-113.38z"/>
	<path id="path13" d="M1131.1,1032.4v-0.003c0-59.53-25.432-113.38-25.432-113.38h-27.318s25.434,53.855,25.434,113.39c0,59.531-25.434,113.38-25.434,113.38h27.318s25.432-53.852,25.432-113.38z"/>
	<path id="path15" d="M1198.5,1032.4c0.006-59.524,25.436-113.39,25.436-113.39l-34.248,0.018,10.725-0.018h-39.188s25.428,53.863,25.434,113.39c-0.006,59.523-25.434,113.38-25.434,113.38h39.188l-10.725-0.019,34.248,0.019c0-0.1-25.4-53.9-25.4-113.4z"/>
	<path id="path17" d="M1334.4,1032.4c0,59.45,14.102,113.38,14.102,113.38h28.727s-25.436-53.852-25.436-113.38c0-59.533,25.436-113.39,25.436-113.39h-28.727c0-0.05-14.1,53.89-14.1,113.39z"/>
</g>
<text id="text19" font-size="16" font-family="&apos;ArialMT&apos;" transform="matrix(0.8331 0 0 1 882 858)">konvexe Linsen/</text>
<text id="text21" font-size="16" font-family="&apos;ArialMT&apos;" transform="matrix(0.8331 0 0 1 882 879)">Sammellinsen</text>
<text id="text23" font-size="16" font-family="&apos;ArialMT&apos;" transform="matrix(0.8331 0 0 1 826 1202)">konvex</text>
<text id="text25" font-size="16" font-family="&apos;ArialMT&apos;" transform="matrix(0.8331 0 0 1 905 1202)">konvex</text>
<text id="text27" font-size="16" font-family="&apos;ArialMT&apos;" transform="matrix(0.8331 0 0 1 1169 1202)">konkav</text>
<text id="text29" font-size="16" font-family="&apos;ArialMT&apos;" transform="matrix(0.8331 0 0 1 1264 1202)">konkav</text>
<text id="text31" font-size="16" font-family="&apos;ArialMT&apos;" transform="matrix(0.8331 0 0 1 1343 1202)">konkav</text>
<text id="text33" font-size="16" font-family="&apos;ArialMT&apos;" transform="matrix(0.8331 0 0 1 1010 1189)">konkav-konvex</text>
<text id="text35" font-size="16" font-family="&apos;ArialMT&apos;" transform="matrix(0.8331 0 0 1 1340 1176)">konvex-</text>
<text id="text37" font-size="16" font-family="&apos;ArialMT&apos;" transform="matrix(0.8331 0 0 1 1184 1176)">bi-</text>
<text id="text39" font-size="16" font-family="&apos;ArialMT&apos;" transform="matrix(0.8331 0 0 1 841 1176)">bi-</text>
<text id="text41" font-size="16" font-family="&apos;ArialMT&apos;" transform="matrix(0.8331 0 0 1 1271 1176)">plan-</text>
<text id="text43" font-size="16" font-family="&apos;ArialMT&apos;" transform="matrix(0.8331 0 0 1 911 1176)">plan-</text>
<text id="text45" font-size="16" font-family="&apos;ArialMT&apos;" transform="matrix(0.8331 0 0 1 1050 879)">Menisken</text>
<text id="text47" font-size="16" font-family="&apos;ArialMT&apos;" transform="matrix(0.8331 0 0 1 1209 858)">konkave Linsen/</text>
<text id="text49" font-size="16px" transform="matrix(0.8331,0,0,1,1209,879)" font-family="ArialMT">Zerstreuungslinsen</text>
<path id="path51" stroke="#000" stroke-width="1.5" d="M1045,909.98c0-6.87-5.621-12.491-12.49-12.491h-87.766c-6.844-0.032-12.432-5.639-12.432-12.489,0,6.851-5.59,12.457-12.432,12.489h-87.766c-6.871,0-12.492,5.621-12.492,12.491" fill="none"/>
<path id="path53" stroke="#000" stroke-width="1.5" d="M1388.1,909.98c0-6.87-5.621-12.491-12.49-12.491h-94.01c-6.844-0.032-12.432-5.639-12.432-12.489,0,6.851-5.59,12.457-12.432,12.489h-94.012c-6.869,0-12.49,5.621-12.49,12.491" fill="none"/>
<line id="line55" y2="905" x1="1089" x2="1089" stroke="#000" y1="889" stroke-width="1.5" fill="none"/>
<line id="line57" y2="905" x1="1050" x2="1030" stroke="#000" y1="889" stroke-width="1.5" fill="none"/>
<path id="path2068" d="M814.38,1032.4h584.27" stroke="#000" stroke-dasharray="2,2" fill="none"/>
<polyline id="polyline60" stroke="#000" points="1394.8,1028.3,1398.8,1032.3,1394.7,1036.3" fill="none"/>
</svg>
